<svg width="127" height="18" viewBox="0 0 127 18" fill="none" xmlns="http://www.w3.org/2000/svg">
<path d="M4.92836 17.3516C4.86754 17.3516 4.78013 17.3516 4.66611 17.3516C4.55969 17.3516 4.44947 17.3516 4.33545 17.3516C4.22142 17.3592 4.115 17.363 4.01619 17.363C3.92497 17.3706 3.86796 17.3782 3.84515 17.3858C3.79194 17.3934 3.73873 17.401 3.68552 17.4086C3.63992 17.4162 3.59431 17.4238 3.5487 17.4314C3.50309 17.439 3.46508 17.4466 3.43468 17.4542C3.41947 17.4542 3.39287 17.458 3.35486 17.4656C3.32446 17.4732 3.29025 17.4808 3.25224 17.4884C3.21424 17.5036 3.18003 17.515 3.14962 17.5226C3.11922 17.5302 3.10021 17.534 3.09261 17.534H2.40849C2.31727 17.534 2.23365 17.5378 2.15764 17.5454C2.08923 17.5606 2.02081 17.5682 1.9524 17.5682C1.76236 17.5682 1.58373 17.5378 1.4165 17.477C1.25687 17.4238 1.11244 17.3022 0.983219 17.1121C1.03643 16.9753 1.10864 16.8841 1.19986 16.8385C1.29868 16.7929 1.4127 16.7396 1.54192 16.6788C1.54952 16.6712 1.57613 16.656 1.62174 16.6332C1.67495 16.6028 1.72816 16.5724 1.78137 16.542C1.84218 16.5116 1.89539 16.485 1.941 16.4622C1.99421 16.4394 2.02461 16.428 2.03221 16.428H2.28306C2.30587 16.428 2.34007 16.4166 2.38568 16.3938C2.43889 16.3634 2.4731 16.3482 2.4883 16.3482C2.51871 16.333 2.57572 16.3178 2.65933 16.3026C2.75055 16.2798 2.84557 16.257 2.94439 16.2342C3.05081 16.2113 3.14962 16.1923 3.24084 16.1771C3.33206 16.1619 3.39667 16.1505 3.43468 16.1429C3.62471 16.0061 3.74634 15.8579 3.79955 15.6983C3.85275 15.5386 3.90977 15.341 3.97058 15.1053V13.0302C3.97058 13.0074 3.97438 12.9769 3.98198 12.9389C3.98958 12.8933 3.99718 12.8477 4.00478 12.8021C4.01999 12.7489 4.03139 12.7033 4.03899 12.6653C4.04659 12.6197 4.05419 12.5855 4.06179 12.5627V9.48409C4.077 8.9976 4.0884 8.60233 4.096 8.29827C4.1112 7.98661 4.12261 7.73957 4.13021 7.55713C4.14541 7.3671 4.15301 7.22267 4.15301 7.12385C4.16061 7.02503 4.16441 6.94142 4.16441 6.87301C4.16441 6.72098 4.16061 6.56895 4.15301 6.41692C4.14541 6.25729 4.14161 6.16227 4.14161 6.13187C4.16441 5.767 4.19862 5.42874 4.24423 5.11708C4.29744 4.79782 4.32404 4.45575 4.32404 4.09089C4.32404 3.93126 4.32024 3.78683 4.31264 3.65761C4.31264 3.52078 4.30504 3.39536 4.28984 3.28134C4.27463 3.15971 4.24803 3.03809 4.21002 2.91647C4.17962 2.79484 4.13021 2.66182 4.06179 2.51739C4.03899 2.48699 3.99338 2.45658 3.92497 2.42618C3.86416 2.38817 3.79574 2.35396 3.71973 2.32356C3.65132 2.28555 3.5829 2.25514 3.51449 2.23234C3.45368 2.20193 3.40807 2.18673 3.37767 2.18673C3.35486 2.17913 3.30925 2.17153 3.24084 2.16393C3.17243 2.14872 3.09641 2.13732 3.0128 2.12972C2.93678 2.12212 2.86077 2.11452 2.78476 2.10692C2.71634 2.09931 2.67453 2.09171 2.65933 2.08411C2.65173 2.08411 2.60992 2.07651 2.53391 2.06131C2.4655 2.0385 2.42369 2.0195 2.40849 2.0043H1.99801C1.88399 2.0043 1.80797 2.0005 1.76997 1.99289C1.73196 1.98529 1.66735 1.96249 1.57613 1.92448C1.46971 1.88647 1.37469 1.83326 1.29108 1.76485C1.20746 1.68884 1.16565 1.61662 1.16565 1.54821V1.41139C1.24927 1.25176 1.35189 1.15294 1.47351 1.11493C1.59513 1.07692 1.72056 1.05792 1.84978 1.05792C1.91059 1.05792 1.9638 1.06172 2.00941 1.06932C2.05502 1.07692 2.10063 1.08072 2.14624 1.08072C2.19945 1.08072 2.26026 1.06552 2.32867 1.03512C2.39708 1.00471 2.45029 0.978105 2.4883 0.955301H2.60232H2.72774C2.76575 0.970504 2.84937 0.985706 2.97859 1.00091C3.10782 1.01611 3.24464 1.03512 3.38907 1.05792C3.5411 1.07312 3.68172 1.08833 3.81095 1.10353C3.94017 1.11113 4.02379 1.11493 4.06179 1.11493C4.14541 1.13013 4.29744 1.14914 4.51788 1.17194C4.74592 1.18714 4.98157 1.20615 5.22481 1.22895C5.47566 1.24415 5.7113 1.25936 5.93174 1.27456C6.15218 1.28976 6.30421 1.29736 6.38783 1.29736C6.7527 1.20615 7.10616 1.15294 7.44823 1.13773C7.79789 1.12253 8.14376 1.11493 8.48582 1.11493H9.4664C9.55002 1.17574 9.59943 1.25556 9.61463 1.35438C9.63744 1.44559 9.64884 1.52921 9.64884 1.60522C9.64884 1.72684 9.61843 1.81806 9.55762 1.87887C9.50441 1.93968 9.4322 1.98529 9.34098 2.0157C9.25736 2.0385 9.16615 2.05371 9.06733 2.06131C8.96851 2.06891 8.87349 2.07651 8.78228 2.08411C8.72907 2.08411 8.63405 2.09551 8.49722 2.11832C8.368 2.14112 8.27678 2.16393 8.22357 2.18673C8.21597 2.18673 8.19697 2.19433 8.16656 2.20953C8.13615 2.22474 8.10195 2.24374 8.06394 2.26655C8.02593 2.28175 7.98793 2.30075 7.94992 2.32356C7.91951 2.33876 7.90051 2.35016 7.89291 2.35776C7.88531 2.35776 7.8625 2.36156 7.8245 2.36916C7.79409 2.37677 7.75988 2.38437 7.72188 2.39197C7.68387 2.39957 7.64586 2.41097 7.60786 2.42618C7.56985 2.44138 7.54704 2.45278 7.53944 2.46038C7.52424 2.46038 7.50144 2.46418 7.47103 2.47178C7.44823 2.47939 7.42162 2.48699 7.39122 2.49459L7.27719 2.51739C7.25439 2.5402 7.22398 2.5706 7.18598 2.60861C7.14797 2.63902 7.10996 2.67322 7.07196 2.71123C7.04155 2.74924 7.01114 2.78344 6.98074 2.81385C6.95033 2.84425 6.93133 2.86326 6.92373 2.87086C6.92373 2.88606 6.91993 2.91647 6.91233 2.96208C6.90472 3.00768 6.89332 3.06089 6.87812 3.12171C6.87052 3.17492 6.86292 3.22813 6.85532 3.28134C6.84771 3.32694 6.84391 3.36115 6.84391 3.38395C6.83631 3.47517 6.82871 3.6348 6.82111 3.86284C6.82111 4.09089 6.81731 4.33033 6.80971 4.58118C6.80971 4.83202 6.80971 5.06767 6.80971 5.28811C6.80971 5.50855 6.80971 5.66438 6.80971 5.7556L6.7869 6.02925V7.76237C6.7717 8.32488 6.7565 8.76956 6.74129 9.09642C6.73369 9.41568 6.72229 9.66273 6.70709 9.83756C6.69949 10.0124 6.69189 10.1378 6.68428 10.2138C6.67668 10.2822 6.67288 10.3393 6.67288 10.3849C6.65008 10.5749 6.63487 10.7649 6.62727 10.955C6.61967 11.145 6.60827 11.3388 6.59307 11.5365C6.58547 11.5441 6.57786 11.5707 6.57026 11.6163C6.56266 11.6543 6.55506 11.6999 6.54746 11.7531C6.53986 11.7987 6.53226 11.8443 6.52465 11.8899C6.51705 11.9279 6.51325 11.9546 6.51325 11.9698C6.51325 12.0078 6.51705 12.0952 6.52465 12.232C6.53226 12.3612 6.53986 12.5057 6.54746 12.6653C6.56266 12.8173 6.57406 12.9617 6.58166 13.0986C6.58927 13.2354 6.59307 13.319 6.59307 13.3494C6.59307 13.3874 6.58927 13.4672 6.58166 13.5889C6.57406 13.7105 6.56266 13.8397 6.54746 13.9765C6.53986 14.1134 6.53226 14.2426 6.52465 14.3642C6.51705 14.4858 6.51325 14.5618 6.51325 14.5922V15.1053C6.51325 15.2194 6.51325 15.341 6.51325 15.4702C6.52085 15.5994 6.53986 15.7249 6.57026 15.8465C6.60827 15.9605 6.66148 16.0631 6.72989 16.1543C6.7983 16.2456 6.89712 16.3102 7.02635 16.3482C7.04915 16.3558 7.09476 16.3634 7.16317 16.371C7.23919 16.3786 7.319 16.3862 7.40262 16.3938C7.49383 16.3938 7.57745 16.3976 7.65346 16.4052C7.73708 16.4128 7.79029 16.4204 7.81309 16.428C7.8511 16.428 7.91951 16.4432 8.01833 16.4736C8.11715 16.504 8.21977 16.5382 8.32619 16.5762C8.44021 16.6066 8.54663 16.6408 8.64545 16.6788C8.74427 16.7092 8.81648 16.7358 8.86209 16.7587C8.9077 16.7815 8.9343 16.8157 8.94191 16.8613C8.94951 16.8993 8.95331 16.9373 8.95331 16.9753C8.95331 17.0817 8.9267 17.1767 8.87349 17.2603C8.82028 17.3364 8.75567 17.401 8.67966 17.4542C8.60364 17.515 8.51623 17.5682 8.41741 17.6138C8.32619 17.6594 8.24257 17.6974 8.16656 17.7278H8.06394C8.01073 17.7202 7.87011 17.6974 7.64206 17.6594C7.42162 17.629 7.18218 17.591 6.92373 17.5454C6.66528 17.5074 6.42584 17.4694 6.20539 17.4314C5.98495 17.401 5.84813 17.3858 5.79492 17.3858C5.79492 17.3782 5.75691 17.3706 5.6809 17.363C5.61248 17.363 5.52887 17.3592 5.43005 17.3516C5.33883 17.3516 5.24381 17.3516 5.145 17.3516C5.05378 17.3516 4.98157 17.3516 4.92836 17.3516ZM11.0855 17.2717L10.9259 17.1919C10.8955 17.1539 10.8689 17.1083 10.8461 17.0551C10.8233 17.0019 10.8119 16.9487 10.8119 16.8955C10.8119 16.8119 10.8499 16.7282 10.9259 16.6446C10.9563 16.637 10.9867 16.6294 11.0171 16.6218C11.0475 16.6142 11.0779 16.6104 11.1083 16.6104C11.1387 16.6028 11.1691 16.5952 11.1995 16.5876C11.2831 16.5648 11.3744 16.5496 11.4732 16.542C11.572 16.5268 11.667 16.5116 11.7582 16.4964C11.857 16.4736 11.9521 16.4508 12.0433 16.428C12.1345 16.3976 12.2143 16.3558 12.2827 16.3026C12.4424 16.2037 12.564 16.0821 12.6476 15.9377C12.7312 15.7933 12.792 15.6412 12.83 15.4816C12.868 15.322 12.8908 15.1586 12.8984 14.9913C12.906 14.8165 12.9136 14.6493 12.9212 14.4896C12.9288 14.4364 12.9365 14.3376 12.9441 14.1932C12.9593 14.0411 12.9707 13.8815 12.9783 13.7143C12.9859 13.5471 12.9935 13.3912 13.0011 13.2468C13.0087 13.0948 13.0125 12.9883 13.0125 12.9275C13.1341 12.7299 13.2101 12.5285 13.2405 12.3232C13.2785 12.118 13.3203 11.9051 13.3659 11.6847C13.3659 11.6771 13.3773 11.6543 13.4001 11.6163C13.4229 11.5783 13.4343 11.5517 13.4343 11.5365C13.4343 11.5213 13.4229 11.4795 13.4001 11.4111C13.3773 11.3426 13.3659 11.297 13.3659 11.2742V11.1944C13.3659 11.1792 13.3773 11.1374 13.4001 11.069C13.4229 10.993 13.4343 10.936 13.4343 10.898C13.4343 10.8676 13.4381 10.7801 13.4457 10.6357C13.4609 10.4913 13.4724 10.3355 13.48 10.1682C13.4876 10.001 13.4952 9.84896 13.5028 9.71214C13.518 9.56771 13.5256 9.47649 13.5256 9.43848C13.5256 9.42328 13.5332 9.38908 13.5484 9.33587C13.5712 9.27505 13.594 9.21044 13.6168 9.14203C13.6396 9.07362 13.6586 9.01281 13.6738 8.9596C13.6966 8.89878 13.708 8.86078 13.708 8.84557C13.7232 8.65554 13.6966 8.49211 13.6282 8.35528C13.5598 8.21086 13.4647 8.08543 13.3431 7.97901C13.2291 7.86499 13.0999 7.76237 12.9555 7.67115C12.8186 7.57994 12.6894 7.49632 12.5678 7.42031C12.4462 7.33669 12.3435 7.25308 12.2599 7.16946C12.1763 7.07824 12.1345 6.97943 12.1345 6.87301V6.73618C12.1421 6.72858 12.1649 6.71338 12.2029 6.69057C12.2485 6.66017 12.2751 6.64876 12.2827 6.65637C12.3131 6.65637 12.3549 6.65637 12.4082 6.65637C12.469 6.64876 12.5298 6.64496 12.5906 6.64496C12.6514 6.64496 12.7084 6.64496 12.7616 6.64496C12.8148 6.64496 12.8528 6.64496 12.8756 6.64496C12.906 6.64496 12.9517 6.64496 13.0125 6.64496C13.0733 6.64496 13.1341 6.64496 13.1949 6.64496C13.2557 6.64496 13.3089 6.64876 13.3545 6.65637C13.4001 6.65637 13.4267 6.65637 13.4343 6.65637C13.4419 6.65637 13.4838 6.67157 13.5598 6.70197C13.6434 6.72478 13.6928 6.73618 13.708 6.73618H14.6772C14.8596 6.76659 15.0268 6.87681 15.1789 7.06684C15.3309 7.24928 15.4639 7.46212 15.5779 7.70536C15.692 7.94101 15.787 8.18045 15.863 8.4237C15.939 8.66694 15.996 8.86078 16.034 9.0052C16.0416 9.02041 16.053 9.05081 16.0682 9.09642C16.0834 9.14203 16.0948 9.19144 16.1024 9.24465C16.1176 9.29026 16.129 9.33587 16.1366 9.38147C16.1443 9.41948 16.1481 9.43848 16.1481 9.43848C16.1633 9.46129 16.2013 9.4955 16.2621 9.5411C16.3305 9.57911 16.3723 9.60572 16.3875 9.62092C16.5243 9.92498 16.6421 10.229 16.741 10.5331C16.8474 10.8371 16.9614 11.145 17.083 11.4567C17.121 11.5403 17.1628 11.6087 17.2084 11.6619C17.2617 11.7075 17.3035 11.7835 17.3339 11.8899C17.3643 11.9051 17.3871 11.9432 17.4023 12.004C17.4251 12.0648 17.4441 12.1104 17.4593 12.1408C17.4897 12.2472 17.5049 12.3308 17.5049 12.3916C17.5049 12.4524 17.5467 12.5095 17.6303 12.5627C17.6303 12.5703 17.6531 12.5893 17.6987 12.6197C17.7443 12.6425 17.7824 12.6615 17.8128 12.6767C17.8128 12.6919 17.8242 12.7375 17.847 12.8135C17.8774 12.8819 17.8926 12.9199 17.8926 12.9275C17.9154 12.9807 17.9572 13.0758 18.018 13.2126C18.0788 13.3418 18.1434 13.4824 18.2118 13.6345C18.2879 13.7789 18.3563 13.9157 18.4171 14.0449C18.4855 14.1742 18.5311 14.2654 18.5539 14.3186C18.5919 14.3642 18.6223 14.3908 18.6451 14.3984C18.6755 14.406 18.7059 14.4098 18.7363 14.4098C18.8047 14.4098 18.877 14.3946 18.953 14.3642C19.029 14.3338 19.0822 14.2844 19.1126 14.216C19.1962 14.0487 19.2912 13.8701 19.3977 13.6801C19.5041 13.49 19.5991 13.3 19.6827 13.11C19.6903 13.1024 19.7055 13.0796 19.7283 13.0416C19.7511 12.9959 19.7701 12.9503 19.7853 12.9047C19.8081 12.8515 19.8271 12.8059 19.8423 12.7679C19.8651 12.7223 19.8765 12.6919 19.8765 12.6767C19.907 12.5931 19.9336 12.5285 19.9564 12.4829C19.9868 12.4372 20.0172 12.3954 20.0476 12.3574C20.078 12.3118 20.1046 12.27 20.1274 12.232C20.1578 12.1864 20.1882 12.1256 20.2186 12.0496C20.2186 12.042 20.2224 12.023 20.23 11.9926C20.2376 11.9546 20.2452 11.9127 20.2528 11.8671C20.268 11.8215 20.2794 11.7835 20.287 11.7531C20.3022 11.7151 20.3098 11.6923 20.3098 11.6847C20.3174 11.6695 20.344 11.6201 20.3896 11.5365C20.4353 11.4529 20.4809 11.3616 20.5265 11.2628C20.5797 11.164 20.6291 11.0728 20.6747 10.9892C20.7203 10.9056 20.7507 10.8561 20.7659 10.8409C20.8039 10.7345 20.8381 10.6205 20.8685 10.4989C20.9065 10.3697 20.9521 10.2594 21.0054 10.1682C21.1346 9.90977 21.26 9.65513 21.3816 9.40428C21.5109 9.14583 21.6401 8.90258 21.7693 8.67454C21.7921 8.63654 21.8263 8.56812 21.8719 8.4693C21.9251 8.37049 21.9783 8.26407 22.0315 8.15004C22.0924 8.03602 22.1456 7.9296 22.1912 7.83078C22.2444 7.72436 22.2824 7.64835 22.3052 7.60274C22.3356 7.54953 22.3622 7.48492 22.385 7.40891C22.4154 7.33289 22.4458 7.26068 22.4762 7.19227C22.5066 7.11625 22.5408 7.05164 22.5789 6.99843C22.6245 6.93762 22.6853 6.89201 22.7613 6.8616C22.8373 6.80839 22.9247 6.76659 23.0235 6.73618C23.1224 6.70577 23.225 6.68297 23.3314 6.66777C23.4454 6.65256 23.5556 6.63736 23.6621 6.62216C23.7761 6.60696 23.8787 6.59175 23.9699 6.57655C23.9927 6.56895 24.0345 6.56135 24.0953 6.55375C24.1637 6.54614 24.2322 6.54234 24.3006 6.54234C24.3766 6.53474 24.4488 6.53094 24.5172 6.53094C24.5856 6.52334 24.6312 6.51954 24.654 6.51954C24.6692 6.50434 24.692 6.49674 24.7225 6.49674C24.7529 6.48913 24.7757 6.48533 24.7909 6.48533C24.8137 6.48533 24.8403 6.48913 24.8707 6.49674C24.9087 6.49674 24.9277 6.50434 24.9277 6.51954C24.9429 6.51954 24.9733 6.52334 25.0189 6.53094C25.0645 6.53094 25.1139 6.53474 25.1671 6.54234C25.2279 6.54234 25.2812 6.54614 25.3268 6.55375C25.38 6.56135 25.418 6.56895 25.4408 6.57655V6.64496V6.65637C25.4256 6.67917 25.3952 6.71718 25.3496 6.77039C25.304 6.816 25.2812 6.8464 25.2812 6.8616C25.2431 6.87681 25.1861 6.90721 25.1101 6.95282C25.0341 6.99083 24.9543 7.03264 24.8707 7.07824C24.7871 7.12385 24.7072 7.16566 24.6312 7.20367C24.5552 7.24167 24.502 7.26448 24.4716 7.27208L24.4146 7.45451V8.40089C24.4146 8.41609 24.3994 8.4617 24.369 8.53772C24.3386 8.60613 24.3158 8.65174 24.3006 8.67454L24.3348 11.3312V11.6277C24.3956 12.1066 24.4412 12.6007 24.4716 13.11C24.502 13.6193 24.5172 14.1248 24.5172 14.6265C24.5172 14.9077 24.5134 15.1852 24.5058 15.4588C24.4982 15.7249 24.4868 15.9871 24.4716 16.2456C24.5096 16.276 24.5514 16.3064 24.597 16.3368C24.6502 16.3672 24.6958 16.39 24.7339 16.4052C24.7567 16.4128 24.8099 16.428 24.8935 16.4508C24.9847 16.466 25.0759 16.485 25.1671 16.5078C25.266 16.523 25.3572 16.5382 25.4408 16.5534C25.5244 16.5686 25.5776 16.58 25.6004 16.5876C25.6232 16.5876 25.6688 16.6028 25.7372 16.6332C25.8133 16.6636 25.8893 16.6978 25.9653 16.7358C26.0489 16.7739 26.1287 16.8119 26.2047 16.8499C26.2807 16.8879 26.3416 16.9183 26.3872 16.9411C26.448 16.9563 26.4822 16.9791 26.4898 17.0095C26.505 17.0323 26.5126 17.0627 26.5126 17.1007C26.5126 17.1691 26.4936 17.2109 26.4556 17.2261C26.4252 17.2413 26.3758 17.2565 26.3073 17.2717C26.2845 17.287 26.2465 17.2984 26.1933 17.306C26.1401 17.3136 26.0831 17.3212 26.0223 17.3288C25.9691 17.3364 25.9197 17.344 25.8741 17.3516C25.8285 17.3516 25.7981 17.3516 25.7828 17.3516H21.165C21.0586 17.3288 21.0054 17.2565 21.0054 17.1349C21.0054 17.0741 21.0168 17.0133 21.0396 16.9525C21.07 16.8917 21.1118 16.8537 21.165 16.8385C21.2638 16.8005 21.355 16.7663 21.4386 16.7358C21.5147 16.7054 21.5869 16.6788 21.6553 16.656C21.7313 16.6256 21.7959 16.6028 21.8491 16.5876C21.9403 16.5572 22.0315 16.5268 22.1228 16.4964C22.2216 16.466 22.309 16.428 22.385 16.3824C22.461 16.3292 22.5218 16.2646 22.5674 16.1885C22.6207 16.1125 22.6473 16.0137 22.6473 15.8921V12.1408C22.6321 12.1104 22.6131 12.0648 22.5903 12.004C22.5751 11.9432 22.5674 11.9051 22.5674 11.8899C22.5674 11.8671 22.5636 11.8139 22.556 11.7303C22.5484 11.6467 22.5408 11.5555 22.5332 11.4567C22.5256 11.3578 22.5142 11.2666 22.499 11.183C22.4914 11.0994 22.4876 11.0462 22.4876 11.0234C22.4876 11.0006 22.4724 10.9512 22.442 10.8752C22.4192 10.7991 22.4078 10.7535 22.4078 10.7383C22.4002 10.7155 22.3888 10.6737 22.3736 10.6129C22.366 10.5445 22.3546 10.4761 22.3394 10.4077C22.3318 10.3317 22.3242 10.2594 22.3166 10.191C22.309 10.1226 22.3052 10.0694 22.3052 10.0314C22.29 9.99339 22.2672 9.97058 22.2368 9.96298C22.2064 9.95538 22.1722 9.95158 22.1342 9.95158C22.0582 9.95158 21.9973 9.98199 21.9517 10.0428C21.9137 10.1036 21.8833 10.1758 21.8605 10.2594C21.8377 10.3355 21.8187 10.4153 21.8035 10.4989C21.7959 10.5749 21.7845 10.6319 21.7693 10.6699L21.7351 10.7041C21.7199 10.7193 21.7123 10.7269 21.7123 10.7269L21.7009 10.7383C21.6629 10.7915 21.6021 10.8752 21.5185 10.9892C21.4348 11.0956 21.374 11.164 21.336 11.1944C21.336 11.202 21.3284 11.221 21.3132 11.2514C21.298 11.2742 21.279 11.3008 21.2562 11.3312C21.241 11.3616 21.222 11.392 21.1992 11.4225C21.184 11.4453 21.1726 11.4567 21.165 11.4567C21.1042 11.5403 21.0548 11.6163 21.0168 11.6847C20.9864 11.7455 20.9597 11.8063 20.9369 11.8671C20.9141 11.9279 20.8875 11.9964 20.8571 12.0724C20.8343 12.1408 20.8039 12.2244 20.7659 12.3232C20.6139 12.6273 20.4657 12.9465 20.3212 13.281C20.1768 13.6079 20.0286 13.9195 19.8765 14.216C19.8537 14.2616 19.8195 14.3186 19.7739 14.387C19.7359 14.4478 19.6941 14.5124 19.6485 14.5808C19.6029 14.6493 19.5611 14.7139 19.5231 14.7747C19.4851 14.8355 19.4585 14.8849 19.4433 14.9229C19.3977 15.0597 19.3558 15.208 19.3178 15.3676C19.2874 15.5196 19.238 15.6602 19.1696 15.7895C19.1696 15.7971 19.1544 15.8199 19.124 15.8579C19.1012 15.8883 19.0746 15.9263 19.0442 15.9719C19.0214 16.0099 18.9948 16.0479 18.9644 16.0859C18.9416 16.1239 18.9302 16.1429 18.9302 16.1429C18.9302 16.1429 18.9226 16.1619 18.9074 16.1999C18.8998 16.2304 18.8884 16.2684 18.8732 16.314C18.8656 16.352 18.8542 16.3938 18.839 16.4394C18.8314 16.4774 18.8238 16.5002 18.8161 16.5078C18.7553 16.6826 18.6679 16.8309 18.5539 16.9525C18.4399 17.0665 18.2955 17.1729 18.1206 17.2717H18.0864H18.0522C18.0294 17.2565 17.9952 17.2451 17.9496 17.2375C17.9116 17.2223 17.8926 17.2071 17.8926 17.1919C17.8698 17.1463 17.8432 17.1007 17.8128 17.0551C17.79 17.0171 17.7672 16.9791 17.7443 16.9411C17.7215 16.9031 17.7025 16.8689 17.6873 16.8385C17.4897 16.4052 17.2883 15.9719 17.083 15.5386C16.8778 15.1053 16.6725 14.6645 16.4673 14.216C16.3077 13.8587 16.1519 13.4976 15.9998 13.1328C15.8554 12.7679 15.6958 12.4068 15.5209 12.0496L15.4867 12.0154C15.4563 11.985 15.4335 11.9698 15.4183 11.9698C15.3423 11.8405 15.2701 11.6771 15.2017 11.4795C15.1333 11.2818 15.0534 11.0842 14.9622 10.8866C14.8786 10.6813 14.776 10.4951 14.6544 10.3279C14.5404 10.1606 14.4035 10.0428 14.2439 9.97438C14.2287 9.98959 14.2135 10.02 14.1983 10.0656C14.1831 10.1112 14.1641 10.1606 14.1413 10.2138C14.1261 10.267 14.1109 10.3202 14.0957 10.3735C14.0805 10.4267 14.0691 10.4647 14.0615 10.4875C13.993 10.8752 13.9398 11.24 13.9018 11.5821C13.8638 11.9241 13.8448 12.2776 13.8448 12.6425C13.8448 12.7869 13.8448 12.9389 13.8448 13.0986C13.8448 13.2506 13.8524 13.4064 13.8676 13.5661C13.8676 13.5813 13.8562 13.6307 13.8334 13.7143C13.8106 13.7903 13.7878 13.8473 13.765 13.8853C13.765 13.9005 13.7612 13.9157 13.7536 13.9309C13.746 13.9461 13.7384 13.9613 13.7308 13.9765C13.7232 13.9993 13.7156 14.0183 13.708 14.0335V14.5922C13.708 14.5998 13.7042 14.6227 13.6966 14.6607C13.689 14.6987 13.6814 14.7443 13.6738 14.7975C13.6662 14.8431 13.6548 14.8887 13.6396 14.9343C13.6244 14.9723 13.613 14.9951 13.6054 15.0027V15.1852C13.613 15.2232 13.6206 15.2878 13.6282 15.379C13.6434 15.4702 13.6548 15.569 13.6624 15.6754C13.67 15.7743 13.6776 15.8693 13.6852 15.9605C13.6928 16.0517 13.7004 16.1125 13.708 16.1429C13.7612 16.3254 13.8752 16.4508 14.0501 16.5192C14.2325 16.58 14.4073 16.6218 14.5746 16.6446C14.5898 16.6522 14.6354 16.6636 14.7114 16.6788C14.7874 16.6864 14.871 16.694 14.9622 16.7016C15.0534 16.7092 15.1371 16.7206 15.2131 16.7358C15.2967 16.7434 15.3461 16.7511 15.3613 16.7587C15.3765 16.7587 15.4259 16.8043 15.5095 16.8955C15.6007 16.9791 15.6692 17.0475 15.7148 17.1007V17.1349C15.7148 17.2033 15.6692 17.2717 15.5779 17.3402C15.4943 17.401 15.4221 17.4314 15.3613 17.4314C15.3233 17.4314 15.2625 17.4276 15.1789 17.42C15.0953 17.4124 15.0078 17.4048 14.9166 17.3972C14.8254 17.3896 14.738 17.382 14.6544 17.3744C14.5784 17.3668 14.5251 17.3592 14.4947 17.3516H13.3545H12.9212C12.8984 17.3516 12.8528 17.3478 12.7844 17.3402C12.716 17.3326 12.64 17.325 12.5564 17.3174C12.4804 17.3022 12.4082 17.2908 12.3397 17.2831C12.2789 17.2755 12.2409 17.2717 12.2257 17.2717H11.0855ZM27.7782 17.2717L27.6186 17.1919C27.5882 17.1539 27.5616 17.1083 27.5388 17.0551C27.516 17.0019 27.5046 16.9487 27.5046 16.8955C27.5046 16.8119 27.5426 16.7282 27.6186 16.6446C27.649 16.637 27.6794 16.6294 27.7098 16.6218C27.7402 16.6142 27.7706 16.6104 27.801 16.6104C27.8314 16.6028 27.8618 16.5952 27.8922 16.5876C27.9759 16.5648 28.0671 16.5496 28.1659 16.542C28.2647 16.5268 28.3597 16.5116 28.4509 16.4964C28.5498 16.4736 28.6448 16.4508 28.736 16.428C28.8272 16.3976 28.907 16.3558 28.9754 16.3026C29.1351 16.2037 29.2567 16.0821 29.3403 15.9377C29.4239 15.7933 29.4847 15.6412 29.5227 15.4816C29.5608 15.322 29.5836 15.1586 29.5912 14.9913C29.5988 14.8165 29.6064 14.6493 29.614 14.4896C29.6216 14.4364 29.6292 14.3376 29.6368 14.1932C29.652 14.0411 29.6634 13.8815 29.671 13.7143C29.6786 13.5471 29.6862 13.3912 29.6938 13.2468C29.7014 13.0948 29.7052 12.9883 29.7052 12.9275C29.8268 12.7299 29.9028 12.5285 29.9332 12.3232C29.9712 12.118 30.013 11.9051 30.0586 11.6847C30.0586 11.6771 30.07 11.6543 30.0929 11.6163C30.1157 11.5783 30.1271 11.5517 30.1271 11.5365C30.1271 11.5213 30.1157 11.4795 30.0929 11.4111C30.07 11.3426 30.0586 11.297 30.0586 11.2742V11.1944C30.0586 11.1792 30.07 11.1374 30.0929 11.069C30.1157 10.993 30.1271 10.936 30.1271 10.898C30.1271 10.8676 30.1309 10.7801 30.1385 10.6357C30.1537 10.4913 30.1651 10.3355 30.1727 10.1682C30.1803 10.001 30.1879 9.84896 30.1955 9.71214C30.2107 9.56771 30.2183 9.47649 30.2183 9.43848C30.2183 9.42328 30.2259 9.38908 30.2411 9.33587C30.2639 9.27505 30.2867 9.21044 30.3095 9.14203C30.3323 9.07362 30.3513 9.01281 30.3665 8.9596C30.3893 8.89878 30.4007 8.86078 30.4007 8.84557C30.4159 8.65554 30.3893 8.49211 30.3209 8.35528C30.2525 8.21086 30.1575 8.08543 30.0358 7.97901C29.9218 7.86499 29.7926 7.76237 29.6482 7.67115C29.5113 7.57994 29.3821 7.49632 29.2605 7.42031C29.1389 7.33669 29.0363 7.25308 28.9526 7.16946C28.869 7.07824 28.8272 6.97943 28.8272 6.87301V6.73618C28.8348 6.72858 28.8576 6.71338 28.8956 6.69057C28.9412 6.66017 28.9678 6.64876 28.9754 6.65637C29.0059 6.65637 29.0477 6.65637 29.1009 6.65637C29.1617 6.64876 29.2225 6.64496 29.2833 6.64496C29.3441 6.64496 29.4011 6.64496 29.4543 6.64496C29.5075 6.64496 29.5456 6.64496 29.5684 6.64496C29.5988 6.64496 29.6444 6.64496 29.7052 6.64496C29.766 6.64496 29.8268 6.64496 29.8876 6.64496C29.9484 6.64496 30.0016 6.64876 30.0472 6.65637C30.0929 6.65637 30.1195 6.65637 30.1271 6.65637C30.1347 6.65637 30.1765 6.67157 30.2525 6.70197C30.3361 6.72478 30.3855 6.73618 30.4007 6.73618H31.3699C31.5523 6.76659 31.7196 6.87681 31.8716 7.06684C32.0236 7.24928 32.1566 7.46212 32.2707 7.70536C32.3847 7.94101 32.4797 8.18045 32.5557 8.4237C32.6317 8.66694 32.6887 8.86078 32.7267 9.0052C32.7343 9.02041 32.7457 9.05081 32.761 9.09642C32.7762 9.14203 32.7876 9.19144 32.7952 9.24465C32.8104 9.29026 32.8218 9.33587 32.8294 9.38147C32.837 9.41948 32.8408 9.43848 32.8408 9.43848C32.856 9.46129 32.894 9.4955 32.9548 9.5411C33.0232 9.57911 33.065 9.60572 33.0802 9.62092C33.217 9.92498 33.3349 10.229 33.4337 10.5331C33.5401 10.8371 33.6541 11.145 33.7757 11.4567C33.8137 11.5403 33.8556 11.6087 33.9012 11.6619C33.9544 11.7075 33.9962 11.7835 34.0266 11.8899C34.057 11.9051 34.0798 11.9432 34.095 12.004C34.1178 12.0648 34.1368 12.1104 34.152 12.1408C34.1824 12.2472 34.1976 12.3308 34.1976 12.3916C34.1976 12.4524 34.2394 12.5095 34.323 12.5627C34.323 12.5703 34.3458 12.5893 34.3915 12.6197C34.4371 12.6425 34.4751 12.6615 34.5055 12.6767C34.5055 12.6919 34.5169 12.7375 34.5397 12.8135C34.5701 12.8819 34.5853 12.9199 34.5853 12.9275C34.6081 12.9807 34.6499 13.0758 34.7107 13.2126C34.7715 13.3418 34.8361 13.4824 34.9046 13.6345C34.9806 13.7789 35.049 13.9157 35.1098 14.0449C35.1782 14.1742 35.2238 14.2654 35.2466 14.3186C35.2846 14.3642 35.315 14.3908 35.3378 14.3984C35.3682 14.406 35.3986 14.4098 35.429 14.4098C35.4975 14.4098 35.5697 14.3946 35.6457 14.3642C35.7217 14.3338 35.7749 14.2844 35.8053 14.216C35.8889 14.0487 35.984 13.8701 36.0904 13.6801C36.1968 13.49 36.2918 13.3 36.3754 13.11C36.383 13.1024 36.3982 13.0796 36.421 13.0416C36.4438 12.9959 36.4628 12.9503 36.478 12.9047C36.5008 12.8515 36.5199 12.8059 36.5351 12.7679C36.5579 12.7223 36.5693 12.6919 36.5693 12.6767C36.5997 12.5931 36.6263 12.5285 36.6491 12.4829C36.6795 12.4372 36.7099 12.3954 36.7403 12.3574C36.7707 12.3118 36.7973 12.27 36.8201 12.232C36.8505 12.1864 36.8809 12.1256 36.9113 12.0496C36.9113 12.042 36.9151 12.023 36.9227 11.9926C36.9303 11.9546 36.9379 11.9127 36.9455 11.8671C36.9607 11.8215 36.9721 11.7835 36.9797 11.7531C36.9949 11.7151 37.0025 11.6923 37.0025 11.6847C37.0101 11.6695 37.0367 11.6201 37.0824 11.5365C37.128 11.4529 37.1736 11.3616 37.2192 11.2628C37.2724 11.164 37.3218 11.0728 37.3674 10.9892C37.413 10.9056 37.4434 10.8561 37.4586 10.8409C37.4966 10.7345 37.5308 10.6205 37.5612 10.4989C37.5993 10.3697 37.6449 10.2594 37.6981 10.1682C37.8273 9.90977 37.9527 9.65513 38.0743 9.40428C38.2036 9.14583 38.3328 8.90258 38.462 8.67454C38.4848 8.63654 38.519 8.56812 38.5646 8.4693C38.6178 8.37049 38.6711 8.26407 38.7243 8.15004C38.7851 8.03602 38.8383 7.9296 38.8839 7.83078C38.9371 7.72436 38.9751 7.64835 38.9979 7.60274C39.0283 7.54953 39.0549 7.48492 39.0777 7.40891C39.1081 7.33289 39.1385 7.26068 39.1689 7.19227C39.1994 7.11625 39.2336 7.05164 39.2716 6.99843C39.3172 6.93762 39.378 6.89201 39.454 6.8616C39.53 6.80839 39.6174 6.76659 39.7163 6.73618C39.8151 6.70577 39.9177 6.68297 40.0241 6.66777C40.1381 6.65256 40.2483 6.63736 40.3548 6.62216C40.4688 6.60696 40.5714 6.59175 40.6626 6.57655C40.6854 6.56895 40.7272 6.56135 40.7881 6.55375C40.8565 6.54614 40.9249 6.54234 40.9933 6.54234C41.0693 6.53474 41.1415 6.53094 41.2099 6.53094C41.2783 6.52334 41.324 6.51954 41.3468 6.51954C41.362 6.50434 41.3848 6.49674 41.4152 6.49674C41.4456 6.48913 41.4684 6.48533 41.4836 6.48533C41.5064 6.48533 41.533 6.48913 41.5634 6.49674C41.6014 6.49674 41.6204 6.50434 41.6204 6.51954C41.6356 6.51954 41.666 6.52334 41.7116 6.53094C41.7572 6.53094 41.8066 6.53474 41.8599 6.54234C41.9207 6.54234 41.9739 6.54614 42.0195 6.55375C42.0727 6.56135 42.1107 6.56895 42.1335 6.57655V6.64496V6.65637C42.1183 6.67917 42.0879 6.71718 42.0423 6.77039C41.9967 6.816 41.9739 6.8464 41.9739 6.8616C41.9359 6.87681 41.8789 6.90721 41.8028 6.95282C41.7268 6.99083 41.647 7.03264 41.5634 7.07824C41.4798 7.12385 41.4 7.16566 41.324 7.20367C41.2479 7.24167 41.1947 7.26448 41.1643 7.27208L41.1073 7.45451V8.40089C41.1073 8.41609 41.0921 8.4617 41.0617 8.53772C41.0313 8.60613 41.0085 8.65174 40.9933 8.67454L41.0275 11.3312V11.6277C41.0883 12.1066 41.1339 12.6007 41.1643 13.11C41.1947 13.6193 41.2099 14.1248 41.2099 14.6265C41.2099 14.9077 41.2061 15.1852 41.1985 15.4588C41.1909 15.7249 41.1795 15.9871 41.1643 16.2456C41.2023 16.276 41.2441 16.3064 41.2897 16.3368C41.343 16.3672 41.3886 16.39 41.4266 16.4052C41.4494 16.4128 41.5026 16.428 41.5862 16.4508C41.6774 16.466 41.7686 16.485 41.8599 16.5078C41.9587 16.523 42.0499 16.5382 42.1335 16.5534C42.2171 16.5686 42.2703 16.58 42.2931 16.5876C42.3159 16.5876 42.3615 16.6028 42.43 16.6332C42.506 16.6636 42.582 16.6978 42.658 16.7358C42.7416 16.7739 42.8214 16.8119 42.8974 16.8499C42.9735 16.8879 43.0343 16.9183 43.0799 16.9411C43.1407 16.9563 43.1749 16.9791 43.1825 17.0095C43.1977 17.0323 43.2053 17.0627 43.2053 17.1007C43.2053 17.1691 43.1863 17.2109 43.1483 17.2261C43.1179 17.2413 43.0685 17.2565 43.0001 17.2717C42.9773 17.287 42.9393 17.2984 42.886 17.306C42.8328 17.3136 42.7758 17.3212 42.715 17.3288C42.6618 17.3364 42.6124 17.344 42.5668 17.3516C42.5212 17.3516 42.4908 17.3516 42.4756 17.3516H37.8577C37.7513 17.3288 37.6981 17.2565 37.6981 17.1349C37.6981 17.0741 37.7095 17.0133 37.7323 16.9525C37.7627 16.8917 37.8045 16.8537 37.8577 16.8385C37.9565 16.8005 38.0477 16.7663 38.1314 16.7358C38.2074 16.7054 38.2796 16.6788 38.348 16.656C38.424 16.6256 38.4886 16.6028 38.5418 16.5876C38.633 16.5572 38.7243 16.5268 38.8155 16.4964C38.9143 16.466 39.0017 16.428 39.0777 16.3824C39.1537 16.3292 39.2146 16.2646 39.2602 16.1885C39.3134 16.1125 39.34 16.0137 39.34 15.8921V12.1408C39.3248 12.1104 39.3058 12.0648 39.283 12.004C39.2678 11.9432 39.2602 11.9051 39.2602 11.8899C39.2602 11.8671 39.2564 11.8139 39.2488 11.7303C39.2412 11.6467 39.2336 11.5555 39.226 11.4567C39.2184 11.3578 39.207 11.2666 39.1918 11.183C39.1842 11.0994 39.1804 11.0462 39.1804 11.0234C39.1804 11.0006 39.1651 10.9512 39.1347 10.8752C39.1119 10.7991 39.1005 10.7535 39.1005 10.7383C39.0929 10.7155 39.0815 10.6737 39.0663 10.6129C39.0587 10.5445 39.0473 10.4761 39.0321 10.4077C39.0245 10.3317 39.0169 10.2594 39.0093 10.191C39.0017 10.1226 38.9979 10.0694 38.9979 10.0314C38.9827 9.99339 38.9599 9.97058 38.9295 9.96298C38.8991 9.95538 38.8649 9.95158 38.8269 9.95158C38.7509 9.95158 38.6901 9.98199 38.6445 10.0428C38.6064 10.1036 38.576 10.1758 38.5532 10.2594C38.5304 10.3355 38.5114 10.4153 38.4962 10.4989C38.4886 10.5749 38.4772 10.6319 38.462 10.6699L38.4278 10.7041C38.4126 10.7193 38.405 10.7269 38.405 10.7269L38.3936 10.7383C38.3556 10.7915 38.2948 10.8752 38.2112 10.9892C38.1276 11.0956 38.0667 11.164 38.0287 11.1944C38.0287 11.202 38.0211 11.221 38.0059 11.2514C37.9907 11.2742 37.9717 11.3008 37.9489 11.3312C37.9337 11.3616 37.9147 11.392 37.8919 11.4225C37.8767 11.4453 37.8653 11.4567 37.8577 11.4567C37.7969 11.5403 37.7475 11.6163 37.7095 11.6847C37.6791 11.7455 37.6525 11.8063 37.6297 11.8671C37.6069 11.9279 37.5803 11.9964 37.5498 12.0724C37.527 12.1408 37.4966 12.2244 37.4586 12.3232C37.3066 12.6273 37.1584 12.9465 37.0139 13.281C36.8695 13.6079 36.7213 13.9195 36.5693 14.216C36.5465 14.2616 36.5123 14.3186 36.4666 14.387C36.4286 14.4478 36.3868 14.5124 36.3412 14.5808C36.2956 14.6493 36.2538 14.7139 36.2158 14.7747C36.1778 14.8355 36.1512 14.8849 36.136 14.9229C36.0904 15.0597 36.0486 15.208 36.0106 15.3676C35.9802 15.5196 35.9307 15.6602 35.8623 15.7895C35.8623 15.7971 35.8471 15.8199 35.8167 15.8579C35.7939 15.8883 35.7673 15.9263 35.7369 15.9719C35.7141 16.0099 35.6875 16.0479 35.6571 16.0859C35.6343 16.1239 35.6229 16.1429 35.6229 16.1429C35.6229 16.1429 35.6153 16.1619 35.6001 16.1999C35.5925 16.2304 35.5811 16.2684 35.5659 16.314C35.5583 16.352 35.5469 16.3938 35.5317 16.4394C35.5241 16.4774 35.5165 16.5002 35.5089 16.5078C35.4481 16.6826 35.3606 16.8309 35.2466 16.9525C35.1326 17.0665 34.9882 17.1729 34.8133 17.2717H34.7791H34.7449C34.7221 17.2565 34.6879 17.2451 34.6423 17.2375C34.6043 17.2223 34.5853 17.2071 34.5853 17.1919C34.5625 17.1463 34.5359 17.1007 34.5055 17.0551C34.4827 17.0171 34.4599 16.9791 34.4371 16.9411C34.4143 16.9031 34.3953 16.8689 34.3801 16.8385C34.1824 16.4052 33.981 15.9719 33.7757 15.5386C33.5705 15.1053 33.3653 14.6645 33.16 14.216C33.0004 13.8587 32.8446 13.4976 32.6925 13.1328C32.5481 12.7679 32.3885 12.4068 32.2136 12.0496L32.1794 12.0154C32.149 11.985 32.1262 11.9698 32.111 11.9698C32.035 11.8405 31.9628 11.6771 31.8944 11.4795C31.826 11.2818 31.7462 11.0842 31.6549 10.8866C31.5713 10.6813 31.4687 10.4951 31.3471 10.3279C31.2331 10.1606 31.0962 10.0428 30.9366 9.97438C30.9214 9.98959 30.9062 10.02 30.891 10.0656C30.8758 10.1112 30.8568 10.1606 30.834 10.2138C30.8188 10.267 30.8036 10.3202 30.7884 10.3735C30.7732 10.4267 30.7618 10.4647 30.7542 10.4875C30.6858 10.8752 30.6326 11.24 30.5945 11.5821C30.5565 11.9241 30.5375 12.2776 30.5375 12.6425C30.5375 12.7869 30.5375 12.9389 30.5375 13.0986C30.5375 13.2506 30.5451 13.4064 30.5603 13.5661C30.5603 13.5813 30.5489 13.6307 30.5261 13.7143C30.5033 13.7903 30.4805 13.8473 30.4577 13.8853C30.4577 13.9005 30.4539 13.9157 30.4463 13.9309C30.4387 13.9461 30.4311 13.9613 30.4235 13.9765C30.4159 13.9993 30.4083 14.0183 30.4007 14.0335V14.5922C30.4007 14.5998 30.3969 14.6227 30.3893 14.6607C30.3817 14.6987 30.3741 14.7443 30.3665 14.7975C30.3589 14.8431 30.3475 14.8887 30.3323 14.9343C30.3171 14.9723 30.3057 14.9951 30.2981 15.0027V15.1852C30.3057 15.2232 30.3133 15.2878 30.3209 15.379C30.3361 15.4702 30.3475 15.569 30.3551 15.6754C30.3627 15.7743 30.3703 15.8693 30.3779 15.9605C30.3855 16.0517 30.3931 16.1125 30.4007 16.1429C30.4539 16.3254 30.5679 16.4508 30.7428 16.5192C30.9252 16.58 31.1 16.6218 31.2673 16.6446C31.2825 16.6522 31.3281 16.6636 31.4041 16.6788C31.4801 16.6864 31.5637 16.694 31.6549 16.7016C31.7462 16.7092 31.8298 16.7206 31.9058 16.7358C31.9894 16.7434 32.0388 16.7511 32.054 16.7587C32.0692 16.7587 32.1186 16.8043 32.2022 16.8955C32.2935 16.9791 32.3619 17.0475 32.4075 17.1007V17.1349C32.4075 17.2033 32.3619 17.2717 32.2707 17.3402C32.187 17.401 32.1148 17.4314 32.054 17.4314C32.016 17.4314 31.9552 17.4276 31.8716 17.42C31.788 17.4124 31.7006 17.4048 31.6093 17.3972C31.5181 17.3896 31.4307 17.382 31.3471 17.3744C31.2711 17.3668 31.2179 17.3592 31.1875 17.3516H30.0472H29.614C29.5912 17.3516 29.5456 17.3478 29.4771 17.3402C29.4087 17.3326 29.3327 17.325 29.2491 17.3174C29.1731 17.3022 29.1009 17.2908 29.0325 17.2831C28.9716 17.2755 28.9336 17.2717 28.9184 17.2717H27.7782ZM43.9008 7.43171C43.8172 7.3785 43.7526 7.30249 43.707 7.20367C43.669 7.09725 43.65 6.99463 43.65 6.89581C43.65 6.8274 43.6918 6.75138 43.7754 6.66777C43.859 6.58415 43.935 6.54234 44.0035 6.54234H46.2725H46.5119L48.4389 6.46253C48.5909 6.46253 48.7163 6.49674 48.8152 6.56515C48.9216 6.63356 48.9748 6.74378 48.9748 6.89581C48.9748 7.05544 48.9406 7.17326 48.8722 7.24928C48.8037 7.32529 48.7163 7.3823 48.6099 7.42031C48.5035 7.45071 48.3895 7.46972 48.2678 7.47732C48.1538 7.48492 48.0436 7.50012 47.9372 7.52293C47.8308 7.54573 47.7434 7.58374 47.6749 7.63695C47.6065 7.69016 47.5723 7.77757 47.5723 7.8992C47.5723 8.08923 47.5989 8.26407 47.6521 8.4237C47.7129 8.57572 47.7776 8.73155 47.846 8.89118C47.9448 9.16483 48.0322 9.44229 48.1082 9.72354C48.1842 10.0048 48.2755 10.286 48.3819 10.5673C48.4503 10.7649 48.5301 10.9436 48.6213 11.1032C48.7201 11.2628 48.8037 11.4339 48.8722 11.6163L48.9178 11.7531C48.933 11.7911 48.9444 11.8291 48.952 11.8671C48.9672 11.9051 48.9748 11.9318 48.9748 11.947C48.9748 11.9698 48.9786 12.004 48.9862 12.0496C48.9938 12.0876 49.0014 12.1294 49.009 12.175C49.0242 12.2206 49.0356 12.2624 49.0432 12.3004C49.0508 12.3384 49.0546 12.365 49.0546 12.3802L49.8413 13.9537C49.8717 13.9917 49.9212 14.0145 49.9896 14.0221C50.058 14.0297 50.1074 14.0335 50.1378 14.0335C50.2138 14.0335 50.2746 14.0069 50.3202 13.9537C50.3658 13.8929 50.4 13.8245 50.4229 13.7485C50.4533 13.6725 50.4723 13.5965 50.4799 13.5204C50.4951 13.4444 50.5103 13.3874 50.5255 13.3494C50.5255 13.3266 50.5597 13.3 50.6281 13.2696C50.6965 13.2316 50.7307 13.205 50.7307 13.1898C50.8523 12.9161 50.9511 12.6159 51.0272 12.289C51.1032 11.9546 51.1754 11.6429 51.2438 11.354C51.3122 11.0424 51.4034 10.7459 51.5175 10.4647C51.6391 10.1834 51.7227 9.88697 51.7683 9.57531C51.7683 9.56011 51.7721 9.5221 51.7797 9.46129C51.7873 9.39288 51.7949 9.32066 51.8025 9.24465C51.8177 9.16863 51.8291 9.09642 51.8367 9.02801C51.8443 8.9596 51.8481 8.91399 51.8481 8.89118C51.8557 8.86838 51.8709 8.81137 51.8937 8.72015C51.9165 8.62133 51.9355 8.51871 51.9507 8.41229C51.9735 8.30587 51.9925 8.20705 52.0077 8.11584C52.0229 8.02462 52.0306 7.96761 52.0306 7.94481V7.8878V7.84219C52.0077 7.81938 51.9773 7.78518 51.9393 7.73957C51.9013 7.69396 51.8595 7.65215 51.8139 7.61414C51.7683 7.56854 51.7189 7.53053 51.6657 7.50012C51.6125 7.46212 51.5631 7.43931 51.5175 7.43171C51.411 7.40891 51.316 7.3937 51.2324 7.3861C51.1488 7.3709 51.0652 7.3557 50.9816 7.34049C50.8979 7.32529 50.8143 7.30629 50.7307 7.28348C50.6471 7.25308 50.5559 7.21127 50.4571 7.15806C50.4191 7.12005 50.3962 7.07824 50.3886 7.03264C50.381 6.97943 50.3772 6.93382 50.3772 6.89581C50.3772 6.81219 50.4 6.72858 50.4457 6.64496C50.4989 6.56135 50.5673 6.50054 50.6509 6.46253H51.2438C51.6011 6.46253 51.9431 6.47773 52.27 6.50814C52.6045 6.53094 52.9465 6.54234 53.2962 6.54234C53.5394 6.54234 53.7827 6.53094 54.0259 6.50814C54.2768 6.47773 54.5314 6.46253 54.7899 6.46253C54.8583 6.46253 54.9343 6.46633 55.0179 6.47393C55.1091 6.47393 55.1927 6.48533 55.2688 6.50814C55.3524 6.53094 55.4208 6.56515 55.474 6.61076C55.5348 6.65637 55.5652 6.72478 55.5652 6.816C55.5652 6.8388 55.5614 6.87301 55.5538 6.91861C55.5538 6.95662 55.5348 6.97562 55.4968 6.97562C55.4284 7.12005 55.3334 7.23407 55.2117 7.31769C55.0901 7.3937 54.9571 7.46212 54.8127 7.52293C54.6758 7.58374 54.5352 7.64455 54.3908 7.70536C54.254 7.76617 54.1361 7.84599 54.0373 7.94481C53.9993 7.98281 53.9385 8.05123 53.8549 8.15004C53.7789 8.24886 53.6953 8.35148 53.604 8.4579C53.5128 8.56432 53.4254 8.66694 53.3418 8.76576C53.2658 8.86458 53.2164 8.93679 53.1936 8.9824C52.9959 9.24085 52.8553 9.5259 52.7717 9.83756C52.6881 10.1492 52.5931 10.4457 52.4866 10.7269C52.4714 10.7497 52.4448 10.7953 52.4068 10.8638C52.3688 10.9322 52.327 11.0044 52.2814 11.0804C52.2434 11.1564 52.2054 11.2286 52.1674 11.297C52.137 11.3654 52.118 11.4111 52.1104 11.4339C52.0876 11.4795 52.042 11.6011 51.9735 11.7987C51.9127 11.9888 51.8443 12.1978 51.7683 12.4258C51.6923 12.6539 51.6201 12.8667 51.5517 13.0644C51.4909 13.262 51.4528 13.3874 51.4376 13.4406C51.4148 13.4634 51.373 13.528 51.3122 13.6345C51.259 13.7409 51.202 13.8549 51.1412 13.9765C51.0804 14.0906 51.0234 14.2008 50.9702 14.3072C50.9169 14.406 50.8827 14.4668 50.8675 14.4896C50.8599 14.5124 50.8371 14.577 50.7991 14.6835C50.7611 14.7899 50.7193 14.9077 50.6737 15.0369C50.6281 15.1662 50.5825 15.2954 50.5369 15.4246C50.4989 15.5462 50.4723 15.6412 50.4571 15.7097C50.4571 15.7249 50.4495 15.7629 50.4343 15.8237C50.4191 15.8845 50.4 15.9491 50.3772 16.0175C50.3544 16.0859 50.3316 16.1505 50.3088 16.2113C50.2936 16.2722 50.2822 16.3102 50.2746 16.3254C50.2746 16.3482 50.2632 16.3672 50.2404 16.3824C50.2252 16.39 50.2176 16.4052 50.2176 16.428C50.0884 16.6028 49.9934 16.7967 49.9326 17.0095C49.8717 17.2223 49.7805 17.4276 49.6589 17.6252C49.6133 17.6936 49.5107 17.7278 49.3511 17.7278C49.3282 17.7278 49.2864 17.7202 49.2256 17.705C49.1952 17.6974 49.1686 17.686 49.1458 17.6708C49.1306 17.6708 49.1002 17.6442 49.0546 17.591C49.0166 17.5378 48.99 17.4922 48.9748 17.4542C48.8684 17.2413 48.7923 17.0247 48.7467 16.8043C48.7011 16.5762 48.6365 16.3558 48.5529 16.1429C48.5453 16.1201 48.5187 16.0631 48.4731 15.9719C48.4275 15.8731 48.3781 15.7705 48.3249 15.664C48.2793 15.5576 48.2336 15.4588 48.188 15.3676C48.15 15.2764 48.1272 15.2194 48.1196 15.1966C48.0968 15.1586 48.0664 15.0977 48.0284 15.0141C47.998 14.9305 47.9638 14.8431 47.9258 14.7519C47.8878 14.6531 47.8536 14.5656 47.8232 14.4896C47.7928 14.406 47.77 14.3528 47.7548 14.33C47.7472 14.3072 47.7319 14.2578 47.7091 14.1818C47.6863 14.0982 47.6597 14.0107 47.6293 13.9195C47.5989 13.8283 47.5685 13.7447 47.5381 13.6687C47.5077 13.5851 47.4849 13.5356 47.4697 13.5204C47.4697 13.5128 47.4545 13.4862 47.4241 13.4406C47.4013 13.3874 47.3747 13.3304 47.3443 13.2696C47.3139 13.2088 47.2835 13.1518 47.2531 13.0986C47.2227 13.0378 47.2036 12.9959 47.196 12.9731C47.196 12.9655 47.1922 12.9389 47.1846 12.8933C47.177 12.8401 47.1694 12.7869 47.1618 12.7337C47.1618 12.6729 47.158 12.6197 47.1504 12.5741C47.1428 12.5209 47.139 12.4905 47.139 12.4829C47.139 12.4677 47.1238 12.4524 47.0934 12.4372C47.0706 12.4144 47.0592 12.3954 47.0592 12.3802C46.9604 12.1902 46.8616 11.966 46.7628 11.7075C46.6716 11.4415 46.5879 11.1982 46.5119 10.9778C46.5119 10.9702 46.5081 10.9474 46.5005 10.9094C46.5005 10.8714 46.4967 10.8295 46.4891 10.7839C46.4891 10.7383 46.4815 10.6965 46.4663 10.6585C46.4587 10.6129 46.4511 10.5825 46.4435 10.5673C46.4283 10.5369 46.3903 10.4609 46.3295 10.3393C46.2687 10.2176 46.2041 10.0884 46.1357 9.95158C46.0672 9.80715 46.0026 9.67793 45.9418 9.56391C45.8886 9.44229 45.8544 9.36247 45.8392 9.32446C45.7708 9.21044 45.7062 9.06602 45.6454 8.89118C45.5921 8.70875 45.5275 8.53012 45.4515 8.35528C45.3755 8.17285 45.2843 8.00942 45.1779 7.86499C45.0715 7.71296 44.9422 7.61414 44.7902 7.56854C44.7522 7.56093 44.6914 7.55333 44.6078 7.54573C44.5241 7.53053 44.4367 7.51533 44.3455 7.50012C44.2543 7.48492 44.1631 7.47352 44.0719 7.46592C43.9882 7.45071 43.9312 7.43931 43.9008 7.43171ZM55.9985 17.3516C55.9985 17.3212 55.9757 17.2793 55.9301 17.2261C55.8921 17.1653 55.8693 17.1159 55.8617 17.0779V17.0323V17.0209C55.8769 16.9905 55.9111 16.9449 55.9643 16.8841C56.0175 16.8233 56.0745 16.7625 56.1353 16.7016C56.2037 16.6332 56.2645 16.5724 56.3177 16.5192C56.3786 16.466 56.4204 16.428 56.4432 16.4052C56.4584 16.39 56.5078 16.3748 56.5914 16.3596C56.6826 16.3368 56.7472 16.3254 56.7852 16.3254H57.5948C57.6176 16.3254 57.648 16.3216 57.686 16.314C57.7316 16.2988 57.7734 16.2874 57.8114 16.2798C57.857 16.2646 57.895 16.2494 57.9254 16.2342C57.9635 16.219 57.9825 16.2113 57.9825 16.2113C58.0889 16.1581 58.1497 16.0745 58.1649 15.9605C58.1877 15.8389 58.1991 15.7249 58.1991 15.6184V15.436C58.1991 15.17 58.1915 14.9191 58.1763 14.6835C58.1687 14.4402 58.1649 14.1856 58.1649 13.9195V13.8397C58.1649 13.8169 58.1687 13.7751 58.1763 13.7143C58.1839 13.6535 58.1915 13.5889 58.1991 13.5204C58.2143 13.4444 58.2295 13.376 58.2447 13.3152C58.2599 13.2544 58.2713 13.2126 58.2789 13.1898V8.21846C58.2789 8.06643 58.2523 7.94481 58.1991 7.85359C58.1459 7.76237 58.0775 7.69396 57.9939 7.64835C57.9102 7.59514 57.8114 7.56093 57.6974 7.54573C57.591 7.53053 57.477 7.52293 57.3553 7.52293H56.8879C56.675 7.52293 56.4964 7.49632 56.352 7.44311C56.2075 7.3899 56.1353 7.26068 56.1353 7.05544C56.1353 6.98703 56.1353 6.92622 56.1353 6.87301C56.1429 6.8198 56.1619 6.74758 56.1923 6.65637C56.5572 6.67157 56.9145 6.66017 57.2641 6.62216C57.6138 6.58415 57.9673 6.56515 58.3245 6.56515H58.621C58.6514 6.57275 58.7122 6.58035 58.8034 6.58795C58.9022 6.59555 59.0011 6.60316 59.0999 6.61076C59.2063 6.61836 59.3051 6.62596 59.3963 6.63356C59.4875 6.64116 59.5522 6.64876 59.5902 6.65637H64.9492C65.1772 6.65637 65.3406 6.71718 65.4395 6.8388C65.5383 6.95282 65.6105 7.09725 65.6561 7.27208V7.922V8.59473C65.6561 8.64034 65.6485 8.72395 65.6333 8.84557C65.6181 8.9596 65.5991 9.08502 65.5763 9.22184C65.5611 9.35107 65.5421 9.48029 65.5193 9.60952C65.5041 9.73114 65.4927 9.81856 65.4851 9.87177C65.4699 9.89457 65.4433 9.92878 65.4052 9.97438C65.3672 10.0124 65.3406 10.0314 65.3254 10.0314C65.3254 10.0466 65.3178 10.0542 65.3026 10.0542H65.2912H65.257C65.2342 10.0542 65.2228 10.0466 65.2228 10.0314C65.0936 9.94018 64.9948 9.83756 64.9264 9.72354C64.8579 9.60192 64.8009 9.47649 64.7553 9.34727C64.7097 9.21804 64.6679 9.08882 64.6299 8.9596C64.5919 8.83037 64.5349 8.70875 64.4589 8.59473C64.4437 8.56432 64.3943 8.51491 64.3106 8.4465C64.2346 8.37049 64.1928 8.32868 64.1852 8.32108C64.17 8.30587 64.1358 8.26407 64.0826 8.19565C64.037 8.12724 63.9838 8.05503 63.923 7.97901C63.8698 7.8954 63.8165 7.81938 63.7633 7.75097C63.7177 7.68256 63.6873 7.64075 63.6721 7.62555C63.6417 7.55713 63.6075 7.52293 63.5695 7.52293C63.5619 7.52293 63.5353 7.51913 63.4897 7.51153C63.4517 7.50392 63.4061 7.49632 63.3529 7.48872C63.3073 7.47352 63.2616 7.46212 63.216 7.45451C63.178 7.44691 63.159 7.43931 63.159 7.43171C63.1362 7.43171 63.0944 7.42411 63.0336 7.40891C62.9728 7.3937 62.9044 7.3785 62.8284 7.3633C62.76 7.34809 62.6953 7.33289 62.6345 7.31769C62.5737 7.29488 62.5357 7.27968 62.5205 7.27208H62.4635C62.4331 7.27208 62.3913 7.28348 62.3381 7.30629C62.2849 7.32149 62.2469 7.32909 62.2241 7.32909H62.1898C62.167 7.32149 62.1024 7.31389 61.996 7.30629C61.8972 7.29869 61.787 7.29488 61.6653 7.29488C61.5437 7.28728 61.4297 7.28348 61.3233 7.28348C61.2245 7.27588 61.1637 7.27208 61.1408 7.27208H61.1066C60.9698 7.27208 60.8558 7.29869 60.7646 7.3519C60.6734 7.40511 60.5973 7.47352 60.5365 7.55713C60.4833 7.64075 60.4339 7.73577 60.3883 7.84219C60.3503 7.94101 60.3123 8.03982 60.2743 8.13864C60.2667 8.22226 60.2515 8.35908 60.2287 8.54912C60.2135 8.73915 60.1945 8.94059 60.1717 9.15343C60.1565 9.36627 60.1413 9.56771 60.1261 9.75774C60.1109 9.94778 60.1033 10.0808 60.1033 10.1568V10.248V10.305C60.1033 10.3431 60.1071 10.4077 60.1147 10.4989C60.1223 10.5901 60.1299 10.6889 60.1375 10.7953C60.1451 10.8942 60.1527 10.993 60.1603 11.0918C60.1755 11.183 60.1869 11.2438 60.1945 11.2742C60.2477 11.3426 60.3085 11.4111 60.3769 11.4795C60.4529 11.5479 60.5327 11.5935 60.6164 11.6163H61.2435C61.5019 11.6163 61.7262 11.6125 61.9162 11.6049C62.1138 11.5973 62.3495 11.5745 62.6231 11.5365C62.6307 11.5213 62.6421 11.4947 62.6573 11.4567C62.6725 11.4187 62.6915 11.3806 62.7143 11.3426C62.7371 11.3046 62.7562 11.2704 62.7714 11.24C62.7866 11.2096 62.798 11.1906 62.8056 11.183C62.836 11.1298 62.874 11.0538 62.9196 10.955C62.9652 10.8485 63.0108 10.7459 63.0564 10.6471C63.102 10.5407 63.14 10.4495 63.1704 10.3735C63.2084 10.2974 63.2312 10.2556 63.2388 10.248C63.254 10.2176 63.2692 10.153 63.2844 10.0542C63.2997 9.94778 63.3149 9.88697 63.3301 9.87177C63.3909 9.80335 63.4707 9.75774 63.5695 9.73494C63.6683 9.71214 63.7671 9.70073 63.866 9.70073C63.9724 9.70073 64.037 9.74254 64.0598 9.82616C64.0902 9.90217 64.1054 9.98959 64.1054 10.0884V10.3735V10.5103C64.1054 10.5787 64.0978 10.6471 64.0826 10.7155C64.0674 10.7763 64.0408 10.8371 64.0028 10.898C63.9952 10.9664 63.9876 11.0804 63.98 11.24C63.9724 11.3997 63.9648 11.5669 63.9572 11.7417C63.9496 11.9165 63.942 12.0838 63.9344 12.2434C63.9268 12.3954 63.923 12.5019 63.923 12.5627V12.8591V13.5433C63.9154 13.5585 63.9078 13.5927 63.9002 13.6459C63.8926 13.6991 63.885 13.7599 63.8774 13.8283C63.8774 13.8891 63.8736 13.9499 63.866 14.0107C63.8584 14.0716 63.8508 14.1134 63.8432 14.1362C63.7595 14.197 63.6835 14.2426 63.6151 14.273C63.5543 14.3034 63.4783 14.3186 63.3871 14.3186C63.3263 14.3186 63.2692 14.2958 63.216 14.2502C63.1628 14.197 63.1134 14.1324 63.0678 14.0563C63.0222 13.9803 62.9842 13.9043 62.9538 13.8283C62.9234 13.7447 62.9044 13.6687 62.8968 13.6003C62.8892 13.5775 62.8778 13.528 62.8626 13.452C62.855 13.3684 62.8474 13.281 62.8398 13.1898C62.8322 13.091 62.8246 12.9997 62.817 12.9161C62.8094 12.8325 62.8056 12.7717 62.8056 12.7337C62.7828 12.7033 62.7409 12.6767 62.6801 12.6539C62.6269 12.6235 62.5737 12.5931 62.5205 12.5627C62.4749 12.5475 62.4027 12.5285 62.3039 12.5057C62.205 12.4829 62.0986 12.4638 61.9846 12.4486C61.8782 12.4258 61.7756 12.4106 61.6767 12.403C61.5855 12.3878 61.5247 12.3802 61.4943 12.3802C61.4715 12.3802 61.4297 12.3802 61.3689 12.3802C61.3157 12.3726 61.2511 12.3688 61.1751 12.3688C61.1066 12.3688 61.0382 12.3688 60.9698 12.3688C60.9014 12.3612 60.8482 12.3574 60.8102 12.3574C60.7874 12.3574 60.7494 12.3612 60.6962 12.3688C60.6506 12.3688 60.6011 12.3688 60.5479 12.3688C60.5023 12.3688 60.4605 12.3726 60.4225 12.3802C60.3845 12.3802 60.3617 12.3802 60.3541 12.3802L60.1945 12.5627V12.9503C60.1945 13.3988 60.1793 13.8321 60.1489 14.2502C60.1185 14.6607 60.1033 15.0901 60.1033 15.5386C60.1033 15.7667 60.1223 15.9339 60.1603 16.0403C60.1983 16.1467 60.2591 16.2228 60.3427 16.2684C60.4263 16.314 60.5327 16.3482 60.662 16.371C60.7912 16.3938 60.9508 16.4318 61.1408 16.485C61.1561 16.485 61.1827 16.4964 61.2207 16.5192C61.2587 16.542 61.2853 16.5648 61.3005 16.5876H62.1898H63.0336C63.0488 16.5876 63.083 16.5838 63.1362 16.5762C63.1894 16.561 63.2464 16.5496 63.3073 16.542C63.3681 16.5268 63.4213 16.5154 63.4669 16.5078C63.5201 16.4926 63.5543 16.485 63.5695 16.485H64.1168H64.3334C64.3486 16.485 64.3753 16.4736 64.4133 16.4508C64.4513 16.4204 64.4893 16.39 64.5273 16.3596C64.5729 16.3216 64.6109 16.2874 64.6413 16.257C64.6717 16.2266 64.6907 16.2113 64.6983 16.2113C64.7515 16.1885 64.7933 16.1771 64.8237 16.1771C64.8617 16.1695 64.8922 16.1657 64.915 16.1657C64.9378 16.1581 64.9606 16.1467 64.9834 16.1315C65.0062 16.1087 65.029 16.0745 65.0518 16.0289C65.1354 15.9073 65.1962 15.7819 65.2342 15.6526C65.2722 15.5234 65.3216 15.3942 65.3824 15.265C65.4128 15.2422 65.4509 15.1966 65.4965 15.1281C65.5421 15.0521 65.5687 15.0027 65.5763 14.9799C65.5839 14.9799 65.6067 14.9685 65.6447 14.9457C65.6827 14.9153 65.7207 14.8849 65.7587 14.8545C65.7967 14.8165 65.8309 14.7823 65.8613 14.7519C65.8917 14.7139 65.9107 14.6873 65.9183 14.6721C65.9259 14.6493 65.9411 14.6189 65.964 14.5808C65.9944 14.5352 66.0248 14.4896 66.0552 14.444C66.0856 14.3908 66.1122 14.3452 66.135 14.3072C66.1654 14.2616 66.1844 14.2312 66.192 14.216C66.192 14.2084 66.2034 14.1932 66.2262 14.1704C66.2414 14.1628 66.2566 14.1514 66.2718 14.1362C66.2718 14.121 66.2756 14.1134 66.2832 14.1134H66.306C66.42 14.1134 66.4884 14.159 66.5113 14.2502C66.5341 14.3338 66.5455 14.4212 66.5455 14.5124V14.7519C66.5455 14.7899 66.5493 14.8811 66.5569 15.0255C66.5645 15.17 66.5683 15.3258 66.5683 15.493C66.5759 15.6526 66.5835 15.8047 66.5911 15.9491C66.5987 16.0935 66.6025 16.1809 66.6025 16.2113V16.2456C66.6025 16.3444 66.5835 16.4584 66.5455 16.5876C66.5075 16.7092 66.4542 16.8271 66.3858 16.9411C66.3174 17.0551 66.2338 17.1501 66.135 17.2261C66.0438 17.3022 65.9449 17.344 65.8385 17.3516C65.7853 17.344 65.6865 17.3364 65.5421 17.3288C65.4052 17.3212 65.257 17.3136 65.0974 17.306C64.9378 17.2984 64.7857 17.2908 64.6413 17.2831C64.4969 17.2755 64.3943 17.2641 64.3334 17.2489H64.1168H63.923C63.885 17.2641 63.7975 17.2793 63.6607 17.2946C63.5239 17.3022 63.3757 17.3098 63.216 17.3174C63.064 17.325 62.9158 17.3326 62.7714 17.3402C62.6345 17.3478 62.5509 17.3516 62.5205 17.3516H58.1991C58.1763 17.3592 58.1383 17.3668 58.0851 17.3744C58.0395 17.382 57.9863 17.3858 57.9254 17.3858C57.8722 17.3934 57.819 17.3972 57.7658 17.3972C57.7126 17.4048 57.6746 17.4086 57.6518 17.4086C57.6518 17.4238 57.6252 17.4314 57.572 17.4314C57.5188 17.4314 57.4694 17.4276 57.4238 17.42C57.3781 17.4124 57.3477 17.4086 57.3325 17.4086C57.3021 17.4314 57.2413 17.458 57.1501 17.4884C57.0589 17.5188 56.9943 17.534 56.9563 17.534C56.9183 17.534 56.8536 17.5264 56.7624 17.5112C56.6788 17.496 56.5876 17.477 56.4888 17.4542C56.39 17.439 56.2949 17.42 56.2037 17.3972C56.1125 17.382 56.0441 17.3668 55.9985 17.3516ZM71.9729 9.81476C71.9729 9.89077 71.9729 9.99339 71.9729 10.1226C71.9729 10.2518 71.9729 10.3811 71.9729 10.5103C71.9805 10.6319 71.9843 10.7459 71.9843 10.8523C71.9919 10.9512 72.0033 11.0082 72.0185 11.0234C72.0185 11.0234 72.0185 11.05 72.0185 11.1032C72.0261 11.1488 72.0299 11.2058 72.0299 11.2742C72.0375 11.335 72.0451 11.3997 72.0527 11.4681C72.0603 11.5289 72.0679 11.5783 72.0755 11.6163C72.0831 11.7151 72.0983 11.8253 72.1211 11.947C72.1439 12.0686 72.2199 12.1598 72.3491 12.2206C72.3719 12.2282 72.4062 12.2358 72.4518 12.2434C72.4974 12.2434 72.543 12.2434 72.5886 12.2434C72.6418 12.2434 72.6912 12.2434 72.7368 12.2434C72.7824 12.2434 72.8166 12.2434 72.8394 12.2434C73.2347 12.2434 73.611 12.137 73.9682 11.9241C74.3331 11.7113 74.66 11.4567 74.9488 11.1602C75.1161 10.917 75.2149 10.6357 75.2453 10.3164C75.2833 9.99719 75.3023 9.69313 75.3023 9.40428V8.73155C75.2415 8.51111 75.1427 8.28687 75.0058 8.05883C74.869 7.82318 74.7056 7.64075 74.5155 7.51153C74.5003 7.51153 74.4585 7.50392 74.3901 7.48872C74.3293 7.46592 74.2913 7.44691 74.2761 7.43171C74.2305 7.40891 74.1659 7.3823 74.0823 7.3519C73.9987 7.31389 73.9416 7.28728 73.9112 7.27208C73.8048 7.25688 73.6984 7.24548 73.592 7.23787C73.4932 7.22267 73.3943 7.21507 73.2955 7.21507C73.1967 7.21507 73.0941 7.22267 72.9877 7.23787C72.8888 7.24548 72.7862 7.25688 72.6798 7.27208C72.6266 7.27968 72.5696 7.30249 72.5088 7.34049C72.4556 7.3785 72.4062 7.42411 72.3605 7.47732C72.3149 7.52293 72.2769 7.57614 72.2465 7.63695C72.2161 7.69016 72.1971 7.73957 72.1895 7.78518C72.1819 7.83839 72.1667 7.9144 72.1439 8.01322C72.1287 8.11204 72.1097 8.21466 72.0869 8.32108C72.0717 8.41989 72.0565 8.51111 72.0413 8.59473C72.0261 8.67074 72.0185 8.71635 72.0185 8.73155C72.0033 8.73915 71.9919 8.78476 71.9843 8.86838C71.9843 8.95199 71.9805 9.05081 71.9729 9.16483C71.9729 9.27886 71.9729 9.39668 71.9729 9.5183C71.9729 9.63992 71.9729 9.73874 71.9729 9.81476ZM68.1874 17.1349C68.1874 17.0133 68.271 16.9297 68.4382 16.8841C68.613 16.8309 68.8069 16.7891 69.0197 16.7587C69.2326 16.7206 69.434 16.6788 69.624 16.6332C69.8217 16.5876 69.9395 16.5116 69.9775 16.4052C69.9851 16.3368 69.9965 16.219 70.0117 16.0517C70.0269 15.8845 70.0459 15.7097 70.0687 15.5272C70.0915 15.3372 70.1105 15.1624 70.1257 15.0027C70.1485 14.8431 70.1675 14.7329 70.1827 14.6721V14.5466C70.1827 14.2806 70.1675 14.0107 70.1371 13.7371C70.1143 13.4634 70.1029 13.1898 70.1029 12.9161V12.7565C70.1029 12.7337 70.1067 12.6729 70.1143 12.5741C70.1219 12.4753 70.1295 12.3726 70.1371 12.2662C70.1523 12.1522 70.1637 12.0496 70.1713 11.9584C70.1789 11.8671 70.1827 11.8101 70.1827 11.7873C70.1827 11.7797 70.1827 11.7151 70.1827 11.5935C70.1827 11.4643 70.1827 11.316 70.1827 11.1488C70.1903 10.9816 70.1941 10.8105 70.1941 10.6357C70.1941 10.4609 70.1941 10.3202 70.1941 10.2138C70.1941 10.153 70.1941 10.0504 70.1941 9.90597C70.1941 9.76155 70.1903 9.60952 70.1827 9.44989C70.1827 9.28266 70.1827 9.12683 70.1827 8.9824C70.1827 8.83037 70.1827 8.72015 70.1827 8.65174C70.1827 8.4617 70.1447 8.29827 70.0687 8.16145C69.9927 8.01702 69.9091 7.86499 69.8179 7.70536C69.7647 7.61414 69.6544 7.54953 69.4872 7.51153C69.3276 7.46592 69.1603 7.43171 68.9855 7.40891C68.8183 7.3785 68.6663 7.34429 68.5294 7.30629C68.3926 7.26068 68.3242 7.18466 68.3242 7.07824C68.3242 7.04024 68.3432 6.98703 68.3812 6.91861C68.4268 6.8426 68.4724 6.78939 68.518 6.75898H69.2136C69.244 6.75138 69.3162 6.74378 69.4302 6.73618C69.5442 6.72098 69.662 6.70958 69.7837 6.70197C69.9129 6.68677 70.0307 6.67537 70.1371 6.66777C70.2512 6.66017 70.3234 6.65637 70.3538 6.65637H71.1405C71.1481 6.65637 71.1709 6.65256 71.2089 6.64496C71.2545 6.63736 71.3001 6.62976 71.3458 6.62216C71.399 6.60696 71.4446 6.59555 71.4826 6.58795C71.5282 6.57275 71.5586 6.56515 71.5738 6.56515H71.6992H71.836C71.8513 6.56515 71.8817 6.56895 71.9273 6.57655C71.9805 6.57655 72.0337 6.58035 72.0869 6.58795C72.1477 6.58795 72.2009 6.59175 72.2465 6.59935C72.2997 6.59935 72.3339 6.59935 72.3491 6.59935C72.3719 6.59935 72.4252 6.59935 72.5088 6.59935C72.5924 6.59175 72.6836 6.58795 72.7824 6.58795C72.8812 6.58035 72.9763 6.57655 73.0675 6.57655C73.1587 6.56895 73.2157 6.56515 73.2385 6.56515H73.649H74.0823C74.0899 6.56515 74.1165 6.57275 74.1621 6.58795C74.2077 6.59555 74.2533 6.60316 74.2989 6.61076C74.3521 6.61836 74.3977 6.62596 74.4357 6.63356C74.4813 6.64116 74.5079 6.64496 74.5155 6.64496C74.5308 6.64496 74.5726 6.64496 74.641 6.64496C74.7094 6.64496 74.7816 6.64876 74.8576 6.65637C74.9412 6.65637 75.0172 6.65637 75.0857 6.65637C75.1617 6.65637 75.2111 6.65637 75.2339 6.65637C75.3023 6.67157 75.3973 6.71338 75.5189 6.78179C75.6482 6.8502 75.747 6.90341 75.8154 6.94142C75.8306 6.94142 75.8648 6.94902 75.918 6.96422C75.9788 6.97182 76.0396 6.98323 76.1004 6.99843C76.1613 7.01363 76.2183 7.02883 76.2715 7.04404C76.3247 7.05924 76.3589 7.07064 76.3741 7.07824C76.6629 7.29869 76.8796 7.56473 77.024 7.87639C77.176 8.18045 77.2939 8.50351 77.3775 8.84557C77.3927 8.84557 77.4003 8.86078 77.4003 8.89118C77.4003 8.92159 77.4003 8.95199 77.4003 8.9824C77.4003 9.16483 77.3889 9.35487 77.3661 9.55251C77.3509 9.75014 77.3205 9.94778 77.2749 10.1454C77.2293 10.3355 77.1646 10.5179 77.081 10.6927C77.005 10.8676 76.9062 11.0234 76.7846 11.1602C76.6629 11.3122 76.5185 11.4681 76.3513 11.6277C76.1841 11.7873 76.0054 11.8937 75.8154 11.947C75.7774 11.9698 75.7204 11.9888 75.6444 12.004C75.5759 12.0192 75.4999 12.042 75.4163 12.0724C75.3403 12.1028 75.2719 12.1446 75.2111 12.1978C75.1579 12.2434 75.1313 12.3042 75.1313 12.3802C75.1313 12.4715 75.1845 12.6121 75.2909 12.8021C75.3973 12.9845 75.5189 13.1784 75.6558 13.3836C75.7926 13.5813 75.9294 13.7675 76.0662 13.9423C76.2031 14.1172 76.3057 14.2426 76.3741 14.3186C76.3817 14.3414 76.4197 14.3984 76.4881 14.4896C76.5565 14.5808 76.6363 14.6835 76.7276 14.7975C76.8188 14.9039 76.91 15.0103 77.0012 15.1167C77.0924 15.2232 77.1646 15.303 77.2179 15.3562C77.2559 15.3942 77.2825 15.4284 77.2977 15.4588C77.3737 15.512 77.4687 15.588 77.5827 15.6869C77.6967 15.7781 77.807 15.8693 77.9134 15.9605C78.0274 16.0517 78.1262 16.1315 78.2098 16.1999C78.3011 16.2684 78.3543 16.3026 78.3695 16.3026C78.3695 16.3102 78.3847 16.3254 78.4151 16.3482C78.4531 16.371 78.4949 16.3976 78.5405 16.428C78.5861 16.4584 78.6317 16.4888 78.6773 16.5192C78.7229 16.542 78.7647 16.5572 78.8027 16.5648C78.8408 16.5876 78.8978 16.618 78.9738 16.656C79.0574 16.694 79.1372 16.7396 79.2132 16.7929C79.2892 16.8385 79.3539 16.8917 79.4071 16.9525C79.4603 17.0057 79.4793 17.0589 79.4641 17.1121C79.4641 17.1501 79.4413 17.1843 79.3957 17.2147C79.3577 17.2451 79.3082 17.2717 79.2474 17.2946C79.1942 17.3098 79.1372 17.325 79.0764 17.3402C79.0232 17.3478 78.9814 17.3516 78.951 17.3516H75.5645C75.4961 17.3516 75.4163 17.3516 75.3251 17.3516C75.2415 17.344 75.1579 17.3288 75.0743 17.306C74.9982 17.2831 74.9298 17.2451 74.869 17.1919C74.8158 17.1387 74.7892 17.0589 74.7892 16.9525C74.7892 16.8993 74.8196 16.8461 74.8804 16.7929C74.9412 16.732 75.0096 16.675 75.0857 16.6218C75.1693 16.5686 75.2491 16.5154 75.3251 16.4622C75.4087 16.409 75.4695 16.3558 75.5075 16.3026V16.2912V16.2113C75.4847 16.1809 75.4581 16.1391 75.4277 16.0859C75.3973 16.0327 75.3669 15.9795 75.3365 15.9263C75.3137 15.8655 75.2909 15.8161 75.2681 15.7781C75.2453 15.7325 75.2339 15.7059 75.2339 15.6983C75.2111 15.6754 75.1617 15.6146 75.0857 15.5158C75.0096 15.4094 74.926 15.2992 74.8348 15.1852C74.7436 15.0711 74.66 14.9647 74.584 14.8659C74.5079 14.7671 74.4585 14.7025 74.4357 14.6721C74.2989 14.482 74.1659 14.311 74.0367 14.159C73.9074 14.0069 73.7744 13.8625 73.6376 13.7257C73.5008 13.5889 73.3525 13.4596 73.1929 13.338C73.0409 13.2088 72.8698 13.0682 72.6798 12.9161C72.619 12.8629 72.562 12.8059 72.5088 12.7451C72.4632 12.6843 72.3948 12.6539 72.3035 12.6539H72.2465C72.2313 12.6691 72.2199 12.6843 72.2123 12.6995C72.1971 12.7299 72.1895 12.7489 72.1895 12.7565C72.1819 12.8401 72.1667 12.9883 72.1439 13.2012C72.1287 13.414 72.1097 13.6421 72.0869 13.8853C72.0717 14.121 72.0565 14.349 72.0413 14.5694C72.0261 14.7823 72.0185 14.9267 72.0185 15.0027C71.9957 15.0027 71.9805 15.0293 71.9729 15.0825C71.9729 15.1357 71.9729 15.17 71.9729 15.1852C71.9729 15.2156 71.9729 15.2536 71.9729 15.2992C71.9805 15.3372 71.9957 15.3562 72.0185 15.3562C72.0185 15.3942 72.0261 15.4588 72.0413 15.55C72.0565 15.6412 72.0717 15.7401 72.0869 15.8465C72.1097 15.9453 72.1287 16.0403 72.1439 16.1315C72.1667 16.2152 72.1819 16.2722 72.1895 16.3026C72.1895 16.3254 72.1971 16.3596 72.2123 16.4052C72.2351 16.4508 72.2579 16.4964 72.2807 16.542C72.3111 16.5876 72.3377 16.6294 72.3605 16.6674C72.391 16.7054 72.4138 16.7244 72.429 16.7244H73.2385C73.2385 16.7396 73.2423 16.7549 73.2499 16.7701C73.2727 16.8081 73.2879 16.8309 73.2955 16.8385C73.3487 16.9069 73.3791 16.9525 73.3867 16.9753C73.3943 16.9981 73.3981 17.0437 73.3981 17.1121C73.3981 17.1957 73.3563 17.2527 73.2727 17.2831C73.1967 17.3136 73.1169 17.3364 73.0333 17.3516H72.543C72.0489 17.3516 71.5624 17.363 71.0835 17.3858C70.6046 17.4162 70.1105 17.4314 69.6012 17.4314H68.5978C68.4914 17.4314 68.3964 17.4124 68.3128 17.3744C68.2292 17.3364 68.1874 17.2565 68.1874 17.1349ZM81.0604 13.9423C81.1592 13.9119 81.2542 13.9575 81.3454 14.0792C81.4442 14.2008 81.5317 14.349 81.6077 14.5238C81.6837 14.6911 81.7483 14.8545 81.8015 15.0141C81.8547 15.1738 81.8965 15.2688 81.9269 15.2992C81.9345 15.3144 81.9573 15.3486 81.9953 15.4018C82.0334 15.4474 82.0752 15.5006 82.1208 15.5614C82.174 15.6146 82.2234 15.6678 82.269 15.7211C82.3222 15.7743 82.3602 15.8123 82.383 15.8351C82.383 15.8503 82.402 15.8807 82.44 15.9263C82.4856 15.9719 82.5198 15.9985 82.5426 16.0061C82.5502 16.0441 82.5769 16.1125 82.6225 16.2113C82.6681 16.3026 82.6985 16.3558 82.7137 16.371C82.7745 16.4622 82.8657 16.542 82.9873 16.6104C83.1166 16.6712 83.2534 16.7206 83.3978 16.7587C83.5422 16.7967 83.6867 16.8271 83.8311 16.8499C83.9755 16.8651 84.0971 16.8727 84.196 16.8727H84.2758C84.5342 16.8043 84.7699 16.694 84.9827 16.542C85.2031 16.39 85.3894 16.2113 85.5414 16.0061C85.701 15.8009 85.8227 15.5728 85.9063 15.322C85.9899 15.0711 86.0317 14.8089 86.0317 14.5352C86.0317 14.4288 86.0241 14.2958 86.0089 14.1362C85.9937 13.9765 85.9329 13.8435 85.8265 13.7371C85.7961 13.7067 85.7504 13.6611 85.6896 13.6003C85.6364 13.5395 85.5794 13.4786 85.5186 13.4178C85.4578 13.357 85.4008 13.3 85.3476 13.2468C85.302 13.1936 85.2678 13.1632 85.245 13.1556C85.1385 13.072 85.0283 13.0074 84.9143 12.9617C84.8003 12.9085 84.6824 12.8705 84.5608 12.8477C84.4468 12.8173 84.329 12.7945 84.2074 12.7793C84.0933 12.7565 83.9755 12.7337 83.8539 12.7109C83.6182 12.6577 83.3446 12.5817 83.0329 12.4829C82.7289 12.3764 82.4324 12.2472 82.1436 12.0952C81.8547 11.9432 81.5925 11.7683 81.3568 11.5707C81.1212 11.3654 80.9578 11.1298 80.8665 10.8638C80.8437 10.8257 80.8209 10.7611 80.7981 10.6699C80.7753 10.5711 80.7525 10.4647 80.7297 10.3507C80.7145 10.2366 80.7031 10.1226 80.6955 10.0086C80.6879 9.89457 80.6841 9.79195 80.6841 9.70073C80.6841 9.57911 80.6917 9.5069 80.7069 9.48409C80.7069 9.47649 80.7069 9.45369 80.7069 9.41568C80.7069 9.37767 80.7069 9.33967 80.7069 9.30166C80.7145 9.25605 80.7183 9.21424 80.7183 9.17624C80.7259 9.13823 80.7335 9.11542 80.7411 9.10782C80.7411 9.09262 80.7449 9.05841 80.7525 9.0052C80.7677 8.94439 80.7829 8.88358 80.7981 8.82277C80.8209 8.76196 80.8361 8.70495 80.8437 8.65174C80.8589 8.59093 80.8665 8.55292 80.8665 8.53772C80.8665 8.53012 80.8779 8.50731 80.9007 8.4693C80.9311 8.4313 80.9616 8.39329 80.992 8.35528C81.03 8.31728 81.0604 8.28307 81.0832 8.25266C81.1136 8.21466 81.1326 8.19185 81.1402 8.18425C81.163 8.16145 81.1896 8.12344 81.22 8.07023C81.258 8.01702 81.296 7.96381 81.334 7.9106C81.372 7.84979 81.4062 7.79658 81.4366 7.75097C81.4746 7.70536 81.5013 7.67115 81.5165 7.64835C81.5621 7.57234 81.6001 7.51153 81.6305 7.46592C81.6685 7.42031 81.7103 7.3823 81.7559 7.3519C81.8015 7.32149 81.8509 7.29108 81.9041 7.26068C81.9573 7.23027 82.0258 7.18846 82.1094 7.13525C82.117 7.11245 82.1436 7.08204 82.1892 7.04404C82.2348 6.99843 82.2652 6.97562 82.2804 6.97562C82.2956 6.96042 82.3222 6.94142 82.3602 6.91861C82.3982 6.88821 82.4248 6.87301 82.44 6.87301C82.4932 6.8578 82.5617 6.8388 82.6453 6.816C82.7365 6.78559 82.8239 6.75518 82.9075 6.72478C82.9911 6.69437 83.0633 6.67157 83.1242 6.65637C83.185 6.63356 83.2192 6.62216 83.2268 6.62216C83.2952 6.60696 83.3636 6.59175 83.432 6.57655C83.4852 6.56135 83.5384 6.54995 83.5916 6.54234C83.6449 6.52714 83.6867 6.51954 83.7171 6.51954C83.9679 6.51954 84.2416 6.54234 84.538 6.58795C84.8345 6.62596 85.0967 6.66397 85.3248 6.70197C85.3324 6.70197 85.3552 6.71338 85.3932 6.73618C85.4388 6.75138 85.4844 6.77039 85.53 6.79319C85.5832 6.80839 85.6326 6.8274 85.6782 6.8502C85.7238 6.8654 85.7542 6.87301 85.7695 6.87301C85.8531 6.87301 85.9253 6.854 85.9861 6.816C86.0469 6.77799 86.1039 6.73618 86.1571 6.69057C86.2179 6.64496 86.2749 6.60316 86.3282 6.56515C86.389 6.52714 86.4612 6.50814 86.5448 6.50814C86.6056 6.50814 86.655 6.53474 86.693 6.58795C86.731 6.64116 86.7576 6.70577 86.7728 6.78179C86.7956 6.8502 86.807 6.92241 86.807 6.99843C86.8146 7.06684 86.8184 7.12005 86.8184 7.15806C86.8184 7.31009 86.788 7.45451 86.7272 7.59134C86.674 7.72817 86.6398 7.86499 86.6246 8.00182C86.6094 8.10064 86.6018 8.22986 86.6018 8.38949C86.6018 8.54912 86.5866 8.70495 86.5562 8.85698C86.5334 9.0014 86.484 9.13063 86.408 9.24465C86.3396 9.35107 86.2255 9.40428 86.0659 9.40428C85.9595 9.40428 85.8759 9.35867 85.8151 9.26745C85.7618 9.16863 85.7162 9.05841 85.6782 8.93679C85.6402 8.80757 85.6022 8.67834 85.5642 8.54912C85.5262 8.41989 85.4768 8.32108 85.416 8.25266C85.3248 8.13864 85.2183 8.02082 85.0967 7.8992C84.9827 7.77757 84.8573 7.66735 84.7205 7.56854C84.5836 7.46212 84.4354 7.3785 84.2758 7.31769C84.1237 7.24928 83.9641 7.21507 83.7969 7.21507H83.7399C83.489 7.27588 83.261 7.3519 83.0557 7.44311C82.8581 7.53433 82.6871 7.65215 82.5426 7.79658C82.4058 7.94101 82.2994 8.11584 82.2234 8.32108C82.1474 8.52631 82.1094 8.77336 82.1094 9.06221V9.18764C82.1094 9.22565 82.1208 9.27886 82.1436 9.34727C82.1664 9.40808 82.1892 9.47649 82.212 9.55251C82.2424 9.62852 82.2728 9.70073 82.3032 9.76915C82.3336 9.82996 82.3602 9.87177 82.383 9.89457C82.383 9.91737 82.3868 9.94018 82.3944 9.96298C82.4096 9.97819 82.4248 9.99339 82.44 10.0086C82.5617 10.115 82.6605 10.191 82.7365 10.2366C82.8125 10.2822 82.9303 10.3202 83.09 10.3507C83.0976 10.3583 83.128 10.3659 83.1812 10.3735C83.2344 10.3811 83.2952 10.3887 83.3636 10.3963C83.432 10.3963 83.4966 10.4001 83.5574 10.4077C83.6182 10.4153 83.6601 10.4229 83.6829 10.4305C83.6905 10.4381 83.7171 10.4533 83.7627 10.4761C83.8159 10.4913 83.8691 10.5103 83.9223 10.5331C83.9831 10.5483 84.0363 10.5635 84.0819 10.5787C84.1351 10.5939 84.1656 10.6015 84.1732 10.6015C84.196 10.6091 84.2492 10.6243 84.3328 10.6471C84.424 10.6623 84.519 10.6813 84.6178 10.7041C84.7167 10.7269 84.8079 10.7459 84.8915 10.7611C84.9827 10.7763 85.0397 10.7839 85.0625 10.7839C85.0929 10.7991 85.1385 10.8143 85.1993 10.8295C85.2678 10.8371 85.3096 10.8485 85.3248 10.8638C85.3324 10.8714 85.3476 10.8866 85.3704 10.9094C85.4008 10.9246 85.4312 10.9436 85.4616 10.9664L85.5756 11.0576C85.5908 11.0652 85.625 11.0766 85.6782 11.0918C85.7314 11.107 85.7885 11.126 85.8493 11.1488C85.9101 11.164 85.9633 11.183 86.0089 11.2058C86.0621 11.221 86.0963 11.2324 86.1115 11.24C86.1191 11.24 86.1343 11.2514 86.1571 11.2742C86.1875 11.297 86.2179 11.3236 86.2483 11.354C86.2787 11.3768 86.3054 11.4035 86.3282 11.4339C86.3586 11.4567 86.3776 11.4681 86.3852 11.4681C86.3928 11.4833 86.4118 11.5023 86.4422 11.5251C86.4726 11.5403 86.5068 11.5593 86.5448 11.5821C86.5828 11.5973 86.617 11.6125 86.6474 11.6277C86.6854 11.6429 86.7082 11.6505 86.7158 11.6505C87.0275 11.8785 87.2517 12.156 87.3886 12.4829C87.533 12.8021 87.6052 13.1556 87.6052 13.5433C87.6052 13.5509 87.6014 13.5661 87.5938 13.5889C87.5938 13.6041 87.5938 13.6231 87.5938 13.6459C87.5862 13.6763 87.5824 13.7067 87.5824 13.7371C87.5824 13.8055 87.5786 13.9081 87.571 14.0449C87.5634 14.1818 87.5558 14.3224 87.5482 14.4668C87.5406 14.6036 87.533 14.7291 87.5254 14.8431C87.5178 14.9571 87.514 15.0255 87.514 15.0483C87.4912 15.1928 87.4342 15.3562 87.3429 15.5386C87.2593 15.7135 87.1529 15.8883 87.0237 16.0631C86.9021 16.2304 86.7728 16.3862 86.636 16.5306C86.5068 16.675 86.3852 16.7891 86.2711 16.8727C86.2179 16.9183 86.1305 16.9677 86.0089 17.0209C85.8873 17.0741 85.7542 17.1273 85.6098 17.1805C85.4654 17.2261 85.3248 17.2717 85.1879 17.3174C85.0511 17.3554 84.9447 17.3858 84.8687 17.4086H83.9337C83.8729 17.4086 83.7893 17.4048 83.6829 17.3972C83.5764 17.3896 83.47 17.3782 83.3636 17.363C83.2648 17.3554 83.1736 17.3478 83.09 17.3402C83.0139 17.3326 82.9759 17.3288 82.9759 17.3288C82.9531 17.3288 82.9113 17.325 82.8505 17.3174C82.7973 17.3098 82.7403 17.3022 82.6795 17.2946C82.6263 17.2793 82.5769 17.2679 82.5312 17.2603C82.4856 17.2451 82.4552 17.2375 82.44 17.2375C82.4248 17.2375 82.383 17.2299 82.3146 17.2147C82.2538 17.1919 82.2044 17.1729 82.1664 17.1577C82.0828 17.1197 81.9953 17.0931 81.9041 17.0779C81.8205 17.0551 81.7331 17.0323 81.6419 17.0095C81.5507 16.9791 81.4632 16.9449 81.3796 16.9069C81.296 16.8613 81.2162 16.7929 81.1402 16.7016C81.125 16.6788 81.106 16.6408 81.0832 16.5876C81.0604 16.5344 81.0376 16.4812 81.0148 16.428C80.992 16.3672 80.9692 16.314 80.9463 16.2684C80.9311 16.2228 80.9235 16.1885 80.9235 16.1657L80.8665 14.1134C80.8665 14.083 80.8893 14.0487 80.9349 14.0107C80.9882 13.9651 81.03 13.9423 81.0604 13.9423ZM89.3611 17.3516C89.3611 17.3212 89.3383 17.2793 89.2927 17.2261C89.2547 17.1653 89.2319 17.1159 89.2243 17.0779V17.0323V17.0209C89.2395 16.9905 89.2737 16.9449 89.3269 16.8841C89.3801 16.8233 89.4371 16.7625 89.4979 16.7016C89.5664 16.6332 89.6272 16.5724 89.6804 16.5192C89.7412 16.466 89.783 16.428 89.8058 16.4052C89.821 16.39 89.8704 16.3748 89.954 16.3596C90.0452 16.3368 90.1099 16.3254 90.1479 16.3254H90.9574C90.9802 16.3254 91.0106 16.3216 91.0486 16.314C91.0942 16.2988 91.1361 16.2874 91.1741 16.2798C91.2197 16.2646 91.2577 16.2494 91.2881 16.2342C91.3261 16.219 91.3451 16.2113 91.3451 16.2113C91.4515 16.1581 91.5123 16.0745 91.5275 15.9605C91.5503 15.8389 91.5617 15.7249 91.5617 15.6184V15.436C91.5617 15.17 91.5541 14.9191 91.5389 14.6835C91.5313 14.4402 91.5275 14.1856 91.5275 13.9195V13.8397C91.5275 13.8169 91.5313 13.7751 91.5389 13.7143C91.5465 13.6535 91.5541 13.5889 91.5617 13.5204C91.5769 13.4444 91.5921 13.376 91.6073 13.3152C91.6225 13.2544 91.6339 13.2126 91.6415 13.1898V8.21846C91.6415 8.06643 91.6149 7.94481 91.5617 7.85359C91.5085 7.76237 91.4401 7.69396 91.3565 7.64835C91.2729 7.59514 91.1741 7.56093 91.06 7.54573C90.9536 7.53053 90.8396 7.52293 90.718 7.52293H90.2505C90.0376 7.52293 89.859 7.49632 89.7146 7.44311C89.5702 7.3899 89.4979 7.26068 89.4979 7.05544C89.4979 6.98703 89.4979 6.92622 89.4979 6.87301C89.5055 6.8198 89.5246 6.74758 89.555 6.65637C89.9198 6.67157 90.2771 6.66017 90.6268 6.62216C90.9764 6.58415 91.3299 6.56515 91.6872 6.56515H91.9836C92.014 6.57275 92.0748 6.58035 92.166 6.58795C92.2649 6.59555 92.3637 6.60316 92.4625 6.61076C92.5689 6.61836 92.6677 6.62596 92.759 6.63356C92.8502 6.64116 92.9148 6.64876 92.9528 6.65637H98.3118C98.5398 6.65637 98.7033 6.71718 98.8021 6.8388C98.9009 6.95282 98.9731 7.09725 99.0187 7.27208V7.922V8.59473C99.0187 8.64034 99.0111 8.72395 98.9959 8.84557C98.9807 8.9596 98.9617 9.08502 98.9389 9.22184C98.9237 9.35107 98.9047 9.48029 98.8819 9.60952C98.8667 9.73114 98.8553 9.81856 98.8477 9.87177C98.8325 9.89457 98.8059 9.92878 98.7679 9.97438C98.7299 10.0124 98.7033 10.0314 98.6881 10.0314C98.6881 10.0466 98.6805 10.0542 98.6653 10.0542H98.6539H98.6197C98.5968 10.0542 98.5854 10.0466 98.5854 10.0314C98.4562 9.94018 98.3574 9.83756 98.289 9.72354C98.2206 9.60192 98.1636 9.47649 98.118 9.34727C98.0723 9.21804 98.0305 9.08882 97.9925 8.9596C97.9545 8.83037 97.8975 8.70875 97.8215 8.59473C97.8063 8.56432 97.7569 8.51491 97.6733 8.4465C97.5973 8.37049 97.5555 8.32868 97.5479 8.32108C97.5326 8.30587 97.4984 8.26407 97.4452 8.19565C97.3996 8.12724 97.3464 8.05503 97.2856 7.97901C97.2324 7.8954 97.1792 7.81938 97.126 7.75097C97.0804 7.68256 97.05 7.64075 97.0348 7.62555C97.0043 7.55713 96.9701 7.52293 96.9321 7.52293C96.9245 7.52293 96.8979 7.51913 96.8523 7.51153C96.8143 7.50392 96.7687 7.49632 96.7155 7.48872C96.6699 7.47352 96.6243 7.46212 96.5787 7.45451C96.5407 7.44691 96.5217 7.43931 96.5217 7.43171C96.4989 7.43171 96.457 7.42411 96.3962 7.40891C96.3354 7.3937 96.267 7.3785 96.191 7.3633C96.1226 7.34809 96.058 7.33289 95.9972 7.31769C95.9363 7.29488 95.8983 7.27968 95.8831 7.27208H95.8261C95.7957 7.27208 95.7539 7.28348 95.7007 7.30629C95.6475 7.32149 95.6095 7.32909 95.5867 7.32909H95.5525C95.5297 7.32149 95.4651 7.31389 95.3586 7.30629C95.2598 7.29869 95.1496 7.29488 95.028 7.29488C94.9064 7.28728 94.7923 7.28348 94.6859 7.28348C94.5871 7.27588 94.5263 7.27208 94.5035 7.27208H94.4693C94.3325 7.27208 94.2184 7.29869 94.1272 7.3519C94.036 7.40511 93.96 7.47352 93.8992 7.55713C93.846 7.64075 93.7966 7.73577 93.7509 7.84219C93.7129 7.94101 93.6749 8.03982 93.6369 8.13864C93.6293 8.22226 93.6141 8.35908 93.5913 8.54912C93.5761 8.73915 93.5571 8.94059 93.5343 9.15343C93.5191 9.36627 93.5039 9.56771 93.4887 9.75774C93.4735 9.94778 93.4659 10.0808 93.4659 10.1568V10.248V10.305C93.4659 10.3431 93.4697 10.4077 93.4773 10.4989C93.4849 10.5901 93.4925 10.6889 93.5001 10.7953C93.5077 10.8942 93.5153 10.993 93.5229 11.0918C93.5381 11.183 93.5495 11.2438 93.5571 11.2742C93.6103 11.3426 93.6711 11.4111 93.7395 11.4795C93.8156 11.5479 93.8954 11.5935 93.979 11.6163H94.6061C94.8645 11.6163 95.0888 11.6125 95.2788 11.6049C95.4765 11.5973 95.7121 11.5745 95.9858 11.5365C95.9934 11.5213 96.0048 11.4947 96.02 11.4567C96.0352 11.4187 96.0542 11.3806 96.077 11.3426C96.0998 11.3046 96.1188 11.2704 96.134 11.24C96.1492 11.2096 96.1606 11.1906 96.1682 11.183C96.1986 11.1298 96.2366 11.0538 96.2822 10.955C96.3278 10.8485 96.3734 10.7459 96.419 10.6471C96.4646 10.5407 96.5027 10.4495 96.5331 10.3735C96.5711 10.2974 96.5939 10.2556 96.6015 10.248C96.6167 10.2176 96.6319 10.153 96.6471 10.0542C96.6623 9.94778 96.6775 9.88697 96.6927 9.87177C96.7535 9.80335 96.8333 9.75774 96.9321 9.73494C97.031 9.71214 97.1298 9.70073 97.2286 9.70073C97.335 9.70073 97.3996 9.74254 97.4224 9.82616C97.4528 9.90217 97.468 9.98959 97.468 10.0884V10.3735V10.5103C97.468 10.5787 97.4604 10.6471 97.4452 10.7155C97.43 10.7763 97.4034 10.8371 97.3654 10.898C97.3578 10.9664 97.3502 11.0804 97.3426 11.24C97.335 11.3997 97.3274 11.5669 97.3198 11.7417C97.3122 11.9165 97.3046 12.0838 97.297 12.2434C97.2894 12.3954 97.2856 12.5019 97.2856 12.5627V12.8591V13.5433C97.278 13.5585 97.2704 13.5927 97.2628 13.6459C97.2552 13.6991 97.2476 13.7599 97.24 13.8283C97.24 13.8891 97.2362 13.9499 97.2286 14.0107C97.221 14.0716 97.2134 14.1134 97.2058 14.1362C97.1222 14.197 97.0462 14.2426 96.9777 14.273C96.9169 14.3034 96.8409 14.3186 96.7497 14.3186C96.6889 14.3186 96.6319 14.2958 96.5787 14.2502C96.5255 14.197 96.4761 14.1324 96.4304 14.0563C96.3848 13.9803 96.3468 13.9043 96.3164 13.8283C96.286 13.7447 96.267 13.6687 96.2594 13.6003C96.2518 13.5775 96.2404 13.528 96.2252 13.452C96.2176 13.3684 96.21 13.281 96.2024 13.1898C96.1948 13.091 96.1872 12.9997 96.1796 12.9161C96.172 12.8325 96.1682 12.7717 96.1682 12.7337C96.1454 12.7033 96.1036 12.6767 96.0428 12.6539C95.9896 12.6235 95.9363 12.5931 95.8831 12.5627C95.8375 12.5475 95.7653 12.5285 95.6665 12.5057C95.5677 12.4829 95.4613 12.4638 95.3472 12.4486C95.2408 12.4258 95.1382 12.4106 95.0394 12.403C94.9482 12.3878 94.8874 12.3802 94.8569 12.3802C94.8341 12.3802 94.7923 12.3802 94.7315 12.3802C94.6783 12.3726 94.6137 12.3688 94.5377 12.3688C94.4693 12.3688 94.4009 12.3688 94.3325 12.3688C94.264 12.3612 94.2108 12.3574 94.1728 12.3574C94.15 12.3574 94.112 12.3612 94.0588 12.3688C94.0132 12.3688 93.9638 12.3688 93.9106 12.3688C93.865 12.3688 93.8232 12.3726 93.7851 12.3802C93.7471 12.3802 93.7243 12.3802 93.7167 12.3802L93.5571 12.5627V12.9503C93.5571 13.3988 93.5419 13.8321 93.5115 14.2502C93.4811 14.6607 93.4659 15.0901 93.4659 15.5386C93.4659 15.7667 93.4849 15.9339 93.5229 16.0403C93.5609 16.1467 93.6217 16.2228 93.7053 16.2684C93.7889 16.314 93.8954 16.3482 94.0246 16.371C94.1538 16.3938 94.3134 16.4318 94.5035 16.485C94.5187 16.485 94.5453 16.4964 94.5833 16.5192C94.6213 16.542 94.6479 16.5648 94.6631 16.5876H95.5525H96.3962C96.4114 16.5876 96.4456 16.5838 96.4989 16.5762C96.5521 16.561 96.6091 16.5496 96.6699 16.542C96.7307 16.5268 96.7839 16.5154 96.8295 16.5078C96.8827 16.4926 96.9169 16.485 96.9321 16.485H97.4794H97.6961C97.7113 16.485 97.7379 16.4736 97.7759 16.4508C97.8139 16.4204 97.8519 16.39 97.8899 16.3596C97.9355 16.3216 97.9735 16.2874 98.0039 16.257C98.0343 16.2266 98.0533 16.2113 98.0609 16.2113C98.1142 16.1885 98.156 16.1771 98.1864 16.1771C98.2244 16.1695 98.2548 16.1657 98.2776 16.1657C98.3004 16.1581 98.3232 16.1467 98.346 16.1315C98.3688 16.1087 98.3916 16.0745 98.4144 16.0289C98.498 15.9073 98.5588 15.7819 98.5968 15.6526C98.6349 15.5234 98.6843 15.3942 98.7451 15.265C98.7755 15.2422 98.8135 15.1966 98.8591 15.1281C98.9047 15.0521 98.9313 15.0027 98.9389 14.9799C98.9465 14.9799 98.9693 14.9685 99.0073 14.9457C99.0453 14.9153 99.0833 14.8849 99.1213 14.8545C99.1594 14.8165 99.1936 14.7823 99.224 14.7519C99.2544 14.7139 99.2734 14.6873 99.281 14.6721C99.2886 14.6493 99.3038 14.6189 99.3266 14.5808C99.357 14.5352 99.3874 14.4896 99.4178 14.444C99.4482 14.3908 99.4748 14.3452 99.4976 14.3072C99.528 14.2616 99.547 14.2312 99.5546 14.216C99.5546 14.2084 99.566 14.1932 99.5888 14.1704C99.604 14.1628 99.6192 14.1514 99.6344 14.1362C99.6344 14.121 99.6382 14.1134 99.6458 14.1134H99.6686C99.7827 14.1134 99.8511 14.159 99.8739 14.2502C99.8967 14.3338 99.9081 14.4212 99.9081 14.5124V14.7519C99.9081 14.7899 99.9119 14.8811 99.9195 15.0255C99.9271 15.17 99.9309 15.3258 99.9309 15.493C99.9385 15.6526 99.9461 15.8047 99.9537 15.9491C99.9613 16.0935 99.9651 16.1809 99.9651 16.2113V16.2456C99.9651 16.3444 99.9461 16.4584 99.9081 16.5876C99.8701 16.7092 99.8169 16.8271 99.7485 16.9411C99.68 17.0551 99.5964 17.1501 99.4976 17.2261C99.4064 17.3022 99.3076 17.344 99.2012 17.3516C99.1479 17.344 99.0491 17.3364 98.9047 17.3288C98.7679 17.3212 98.6197 17.3136 98.46 17.306C98.3004 17.2984 98.1484 17.2908 98.0039 17.2831C97.8595 17.2755 97.7569 17.2641 97.6961 17.2489H97.4794H97.2856C97.2476 17.2641 97.1602 17.2793 97.0234 17.2946C96.8865 17.3022 96.7383 17.3098 96.5787 17.3174C96.4266 17.325 96.2784 17.3326 96.134 17.3402C95.9972 17.3478 95.9135 17.3516 95.8831 17.3516H91.5617C91.5389 17.3592 91.5009 17.3668 91.4477 17.3744C91.4021 17.382 91.3489 17.3858 91.2881 17.3858C91.2349 17.3934 91.1817 17.3972 91.1285 17.3972C91.0752 17.4048 91.0372 17.4086 91.0144 17.4086C91.0144 17.4238 90.9878 17.4314 90.9346 17.4314C90.8814 17.4314 90.832 17.4276 90.7864 17.42C90.7408 17.4124 90.7104 17.4086 90.6952 17.4086C90.6648 17.4314 90.604 17.458 90.5127 17.4884C90.4215 17.5188 90.3569 17.534 90.3189 17.534C90.2809 17.534 90.2163 17.5264 90.1251 17.5112C90.0414 17.496 89.9502 17.477 89.8514 17.4542C89.7526 17.439 89.6576 17.42 89.5664 17.3972C89.4751 17.382 89.4067 17.3668 89.3611 17.3516ZM106.213 10.8067C106.502 10.7915 106.765 10.8029 107 10.8409C107.243 10.879 107.494 10.898 107.753 10.898H107.969C108 10.898 108.068 10.8942 108.175 10.8866C108.281 10.879 108.391 10.8714 108.505 10.8638C108.627 10.8485 108.741 10.8371 108.847 10.8295C108.954 10.8143 109.018 10.8067 109.041 10.8067C109.072 10.8067 109.151 10.8143 109.281 10.8295C109.41 10.8371 109.528 10.8409 109.634 10.8409C109.703 10.8409 109.76 10.8371 109.805 10.8295C109.858 10.8219 109.893 10.8143 109.908 10.8067C109.938 10.8067 109.98 10.7915 110.033 10.7611C110.094 10.7231 110.143 10.6851 110.181 10.6471V10.3279C110.181 9.94778 110.117 9.57531 109.988 9.21044C109.858 8.83797 109.741 8.4731 109.634 8.11584C109.634 8.10064 109.63 8.07403 109.623 8.03602C109.615 7.99041 109.604 7.94481 109.589 7.8992C109.581 7.84599 109.573 7.80038 109.566 7.76237C109.558 7.72436 109.554 7.69776 109.554 7.68256C109.547 7.67496 109.531 7.64835 109.509 7.60274C109.486 7.54953 109.459 7.49252 109.429 7.43171C109.398 7.3633 109.368 7.30249 109.338 7.24928C109.315 7.19607 109.296 7.15806 109.281 7.13525C109.243 7.02883 109.208 6.90341 109.178 6.75898C109.148 6.60696 109.113 6.45493 109.075 6.3029C109.037 6.15087 108.992 6.00264 108.939 5.85822C108.893 5.71379 108.836 5.58837 108.768 5.48195C108.76 5.47434 108.737 5.45154 108.699 5.41353C108.661 5.36792 108.619 5.32232 108.574 5.27671C108.528 5.2235 108.482 5.17409 108.437 5.12848C108.391 5.08287 108.357 5.05247 108.334 5.03726C108.311 5.02966 108.277 5.01826 108.232 5.00306C108.186 4.98025 108.148 4.96885 108.118 4.96885C108.102 4.97645 108.095 4.98025 108.095 4.98025L108.026 5.04867C107.988 5.08667 107.969 5.11708 107.969 5.13988C107.909 5.32232 107.848 5.51995 107.787 5.73279C107.726 5.94563 107.658 6.16607 107.582 6.39412C107.513 6.61456 107.437 6.835 107.354 7.05544C107.278 7.27588 107.194 7.48492 107.103 7.68256C107.095 7.69776 107.076 7.73197 107.046 7.78518C107.023 7.83078 106.996 7.88399 106.966 7.94481C106.943 7.99802 106.92 8.05123 106.898 8.10444C106.882 8.15004 106.875 8.18045 106.875 8.19565C106.852 8.21846 106.822 8.29067 106.784 8.41229C106.746 8.52631 106.704 8.65934 106.658 8.81137C106.613 8.95579 106.567 9.10402 106.521 9.25605C106.483 9.40808 106.449 9.5221 106.419 9.59811C106.365 9.75774 106.305 9.92498 106.236 10.0998C106.175 10.267 106.145 10.4343 106.145 10.6015C106.145 10.6395 106.145 10.6813 106.145 10.7269C106.153 10.7649 106.175 10.7915 106.213 10.8067ZM103.796 17.3516C103.751 17.3516 103.667 17.3516 103.545 17.3516C103.424 17.3592 103.295 17.363 103.158 17.363C103.021 17.363 102.888 17.363 102.759 17.363C102.629 17.3706 102.538 17.3744 102.485 17.3744C102.47 17.3744 102.436 17.3782 102.382 17.3858C102.337 17.3934 102.284 17.401 102.223 17.4086C102.17 17.4162 102.116 17.42 102.063 17.42C102.017 17.4276 101.987 17.4314 101.972 17.4314C101.911 17.4314 101.816 17.4276 101.687 17.42C101.558 17.42 101.417 17.4162 101.265 17.4086C101.121 17.401 100.984 17.3934 100.854 17.3858C100.718 17.3782 100.619 17.3744 100.558 17.3744C100.452 17.344 100.383 17.306 100.353 17.2603C100.315 17.2071 100.296 17.1197 100.296 16.9981C100.296 16.8917 100.326 16.8081 100.387 16.7472C100.44 16.6864 100.512 16.6408 100.604 16.6104C100.695 16.58 100.801 16.561 100.923 16.5534C101.037 16.5458 101.151 16.542 101.265 16.542C101.387 16.542 101.497 16.542 101.596 16.542C101.702 16.5344 101.797 16.523 101.881 16.5078C101.896 16.4926 101.926 16.4622 101.972 16.4166C102.017 16.371 102.04 16.3406 102.04 16.3254C102.055 16.3026 102.086 16.2722 102.132 16.2342C102.185 16.1885 102.242 16.1429 102.303 16.0973C102.363 16.0441 102.417 15.9985 102.462 15.9605C102.515 15.9149 102.55 15.8845 102.565 15.8693C102.816 15.6488 102.994 15.4094 103.101 15.151C103.215 14.8849 103.329 14.6075 103.443 14.3186C103.686 13.6953 103.956 13.0872 104.252 12.4943C104.556 11.9013 104.838 11.2856 105.096 10.6471C105.104 10.6395 105.115 10.6129 105.13 10.5673C105.145 10.5141 105.161 10.4609 105.176 10.4077C105.199 10.3545 105.218 10.3012 105.233 10.248C105.256 10.1948 105.267 10.1568 105.267 10.134C105.275 10.1112 105.286 10.0694 105.301 10.0086C105.317 9.94778 105.336 9.88317 105.358 9.81476C105.381 9.73874 105.4 9.67033 105.415 9.60952C105.438 9.54871 105.457 9.5107 105.472 9.4955C105.472 9.48789 105.499 9.44989 105.552 9.38147C105.605 9.30546 105.632 9.25225 105.632 9.22184C105.647 9.19904 105.67 9.15723 105.7 9.09642C105.731 9.02801 105.761 8.9596 105.792 8.89118C105.83 8.81517 105.864 8.74676 105.894 8.68594C105.925 8.61753 105.947 8.57192 105.963 8.54912C105.978 8.53392 105.997 8.48831 106.02 8.41229C106.042 8.33628 106.061 8.29067 106.077 8.27547C106.084 8.26787 106.096 8.24886 106.111 8.21846C106.126 8.18805 106.141 8.15384 106.156 8.11584C106.172 8.07023 106.183 8.03222 106.191 8.00182C106.206 7.96381 106.213 7.9372 106.213 7.922C106.221 7.8992 106.232 7.84599 106.248 7.76237C106.27 7.67876 106.293 7.59134 106.316 7.50012C106.339 7.4013 106.358 7.31009 106.373 7.22647C106.388 7.14286 106.404 7.09345 106.419 7.07824C106.426 7.04024 106.453 6.99083 106.499 6.93002C106.552 6.86921 106.582 6.8312 106.59 6.816C106.59 6.80079 106.601 6.75518 106.624 6.67917C106.654 6.60316 106.67 6.55755 106.67 6.54234C106.677 6.52714 106.7 6.48533 106.738 6.41692C106.776 6.34851 106.814 6.27629 106.852 6.20028C106.89 6.11666 106.924 6.04065 106.955 5.97224C106.993 5.90382 107.015 5.85822 107.023 5.83541C107.031 5.82781 107.042 5.80501 107.057 5.767C107.072 5.72139 107.088 5.67578 107.103 5.63017C107.118 5.57696 107.133 5.53136 107.148 5.49335C107.164 5.44774 107.175 5.41733 107.183 5.40213C107.213 5.37933 107.236 5.34892 107.251 5.31091C107.274 5.26531 107.293 5.2425 107.308 5.2425C107.316 5.2273 107.342 5.18929 107.388 5.12848C107.441 5.06767 107.494 5.00306 107.548 4.93464C107.608 4.85863 107.662 4.79022 107.707 4.72941C107.76 4.66099 107.791 4.61918 107.798 4.60398C107.806 4.60398 107.814 4.58498 107.821 4.54697C107.829 4.50896 107.84 4.47096 107.855 4.43295C107.871 4.38734 107.882 4.33413 107.89 4.27332C107.928 4.13649 107.969 4.01487 108.015 3.90845C108.068 3.79443 108.095 3.66141 108.095 3.50938C108.095 3.43336 108.083 3.36115 108.061 3.29274C108.038 3.22432 108.011 3.15971 107.981 3.0989C107.958 3.03809 107.935 2.97728 107.912 2.91647C107.89 2.84805 107.878 2.77584 107.878 2.69983V2.59721C107.878 2.5744 107.882 2.5478 107.89 2.51739C107.912 2.48699 107.958 2.46418 108.026 2.44898C108.102 2.42618 108.186 2.40717 108.277 2.39197C108.368 2.37677 108.46 2.36156 108.551 2.34636C108.642 2.33116 108.714 2.30455 108.768 2.26655C108.904 2.16013 109.026 2.06511 109.132 1.98149C109.239 1.89788 109.379 1.84467 109.554 1.82186C109.676 1.80666 109.794 1.83707 109.908 1.91308C110.029 1.98909 110.121 2.07271 110.181 2.16393C110.341 2.50599 110.459 2.85946 110.535 3.22432C110.618 3.58159 110.725 3.93126 110.854 4.27332C110.862 4.27332 110.873 4.29232 110.888 4.33033C110.911 4.36074 110.934 4.39494 110.957 4.43295C110.98 4.47096 110.999 4.50896 111.014 4.54697C111.029 4.58498 111.037 4.60398 111.037 4.60398C111.037 4.63439 111.044 4.699 111.059 4.79782C111.082 4.89664 111.105 4.99926 111.128 5.10568C111.151 5.2121 111.17 5.31471 111.185 5.41353C111.208 5.50475 111.223 5.56556 111.23 5.59597C111.238 5.64158 111.249 5.70619 111.265 5.7898C111.28 5.86582 111.295 5.94563 111.31 6.02925C111.333 6.11286 111.352 6.18888 111.367 6.25729C111.39 6.3257 111.401 6.36751 111.401 6.38271C111.409 6.42072 111.439 6.51194 111.493 6.65637C111.546 6.79319 111.599 6.94522 111.652 7.11245C111.713 7.27968 111.77 7.43551 111.823 7.57994C111.877 7.72436 111.915 7.81178 111.937 7.84219C111.937 7.84979 111.937 7.86879 111.937 7.8992C111.945 7.9296 111.949 7.96381 111.949 8.00182C111.956 8.03982 111.964 8.07783 111.972 8.11584C111.979 8.14624 111.987 8.17285 111.994 8.19565C112.002 8.21086 112.01 8.24126 112.017 8.28687C112.025 8.32488 112.032 8.37049 112.04 8.4237C112.048 8.4693 112.055 8.51491 112.063 8.56052C112.07 8.59853 112.074 8.62133 112.074 8.62893C112.074 8.63654 112.082 8.65934 112.097 8.69735C112.12 8.72775 112.143 8.76576 112.165 8.81137C112.188 8.84937 112.211 8.88738 112.234 8.92539C112.257 8.9634 112.272 8.9824 112.279 8.9824C112.279 8.9976 112.287 9.03941 112.302 9.10782C112.317 9.17624 112.333 9.25225 112.348 9.33587C112.371 9.41188 112.39 9.48789 112.405 9.56391C112.42 9.63232 112.428 9.67793 112.428 9.70073C112.435 9.70834 112.447 9.73114 112.462 9.76915C112.477 9.79955 112.492 9.83376 112.507 9.87177C112.53 9.90217 112.549 9.93638 112.564 9.97438C112.58 10.0048 112.587 10.0238 112.587 10.0314C112.595 10.0466 112.606 10.0808 112.621 10.134C112.637 10.1796 112.652 10.2328 112.667 10.2936C112.682 10.3545 112.694 10.4115 112.701 10.4647C112.709 10.5103 112.713 10.5369 112.713 10.5445C112.812 11.031 112.948 11.5175 113.123 12.004C113.298 12.4829 113.45 12.9617 113.579 13.4406C113.579 13.4558 113.583 13.49 113.591 13.5433C113.598 13.5889 113.606 13.6421 113.613 13.7029C113.621 13.7637 113.629 13.8207 113.636 13.8739C113.644 13.9271 113.651 13.9613 113.659 13.9765C113.667 13.9917 113.682 14.0373 113.705 14.1134C113.735 14.1894 113.765 14.273 113.796 14.3642C113.826 14.4478 113.853 14.5314 113.876 14.6151C113.906 14.6911 113.925 14.7367 113.933 14.7519C113.971 14.9039 114.009 15.0749 114.047 15.265C114.085 15.4474 114.138 15.626 114.206 15.8009C114.275 15.9681 114.366 16.1201 114.48 16.257C114.602 16.3938 114.761 16.4888 114.959 16.542C115.043 16.5648 115.119 16.58 115.187 16.5876C115.255 16.5876 115.305 16.5876 115.335 16.5876C115.343 16.5876 115.366 16.5914 115.404 16.599C115.442 16.599 115.483 16.6028 115.529 16.6104C115.575 16.618 115.62 16.6256 115.666 16.6332C115.711 16.6408 115.746 16.6484 115.768 16.656C115.814 16.6788 115.879 16.7016 115.962 16.7244C116.054 16.7472 116.141 16.7777 116.225 16.8157C116.316 16.8461 116.392 16.8917 116.453 16.9525C116.521 17.0057 116.555 17.0779 116.555 17.1691C116.555 17.2679 116.517 17.344 116.441 17.3972C116.373 17.4504 116.289 17.4884 116.19 17.5112C116.099 17.5416 116 17.5568 115.894 17.5568C115.795 17.5644 115.711 17.5682 115.643 17.5682C115.149 17.5682 114.659 17.5454 114.172 17.4998C113.693 17.4542 113.207 17.4314 112.713 17.4314H111.23C111.04 17.4998 110.885 17.5378 110.763 17.5454C110.641 17.5606 110.493 17.5682 110.318 17.5682C110.265 17.5682 110.185 17.5644 110.079 17.5568C109.98 17.5568 109.877 17.5454 109.771 17.5226C109.672 17.5074 109.585 17.477 109.509 17.4314C109.433 17.3858 109.395 17.3212 109.395 17.2375V17.2147C109.448 17.1083 109.535 17.0133 109.657 16.9297C109.779 16.8385 109.889 16.7739 109.988 16.7358C110.018 16.7358 110.094 16.7244 110.216 16.7016C110.345 16.6788 110.482 16.656 110.626 16.6332C110.778 16.6028 110.919 16.5762 111.048 16.5534C111.177 16.523 111.257 16.5078 111.287 16.5078C111.379 16.485 111.451 16.447 111.504 16.3938C111.557 16.333 111.595 16.2684 111.618 16.1999C111.641 16.1315 111.652 16.0593 111.652 15.9833C111.66 15.9073 111.664 15.8313 111.664 15.7553V15.436C111.656 15.36 111.629 15.227 111.584 15.0369C111.538 14.8393 111.481 14.6189 111.413 14.3756C111.352 14.1248 111.28 13.8625 111.196 13.5889C111.113 13.3152 111.029 13.0644 110.945 12.8363C110.869 12.6007 110.793 12.403 110.717 12.2434C110.641 12.0762 110.577 11.9774 110.523 11.947C110.402 11.8785 110.292 11.8367 110.193 11.8215C110.094 11.8063 109.995 11.7987 109.896 11.7987C109.798 11.7911 109.699 11.7835 109.6 11.7759C109.501 11.7607 109.395 11.7265 109.281 11.6733C109.227 11.6733 109.121 11.6809 108.961 11.6961C108.809 11.7113 108.642 11.7265 108.46 11.7417C108.285 11.7493 108.118 11.7607 107.958 11.7759C107.798 11.7835 107.684 11.7873 107.616 11.7873C107.487 11.7873 107.338 11.7835 107.171 11.7759C107.012 11.7683 106.844 11.7645 106.67 11.7645C106.411 11.7645 106.164 11.7987 105.928 11.8671C105.693 11.9279 105.507 12.0724 105.37 12.3004C105.362 12.346 105.347 12.4258 105.324 12.5399C105.309 12.6539 105.286 12.7755 105.256 12.9047C105.225 13.034 105.195 13.1594 105.164 13.281C105.142 13.395 105.119 13.4748 105.096 13.5204C105.05 13.6801 104.997 13.8397 104.936 13.9993C104.876 14.1514 104.815 14.3034 104.754 14.4554C104.701 14.6075 104.655 14.7633 104.617 14.9229C104.579 15.0825 104.56 15.2422 104.56 15.4018V15.7895C104.575 15.8655 104.61 15.9339 104.663 15.9947C104.724 16.0479 104.792 16.0973 104.868 16.1429C104.944 16.1809 105.016 16.2152 105.085 16.2456C105.161 16.276 105.221 16.3026 105.267 16.3254C105.389 16.371 105.541 16.4052 105.723 16.428C105.906 16.4508 106.08 16.485 106.248 16.5306C106.423 16.5686 106.571 16.637 106.692 16.7358C106.814 16.8271 106.875 16.9715 106.875 17.1691C106.875 17.2984 106.81 17.3858 106.681 17.4314C106.559 17.4846 106.438 17.5302 106.316 17.5682C105.974 17.4694 105.651 17.4086 105.347 17.3858C105.05 17.363 104.75 17.3516 104.446 17.3516H103.796ZM121.39 17.3516C121.329 17.3516 121.241 17.3516 121.127 17.3516C121.021 17.3516 120.911 17.3516 120.797 17.3516C120.683 17.3592 120.576 17.363 120.478 17.363C120.386 17.3706 120.329 17.3782 120.307 17.3858C120.253 17.3934 120.2 17.401 120.147 17.4086C120.101 17.4162 120.056 17.4238 120.01 17.4314C119.964 17.439 119.926 17.4466 119.896 17.4542C119.881 17.4542 119.854 17.458 119.816 17.4656C119.786 17.4732 119.752 17.4808 119.714 17.4884C119.676 17.5036 119.641 17.515 119.611 17.5226C119.581 17.5302 119.562 17.534 119.554 17.534H118.87C118.779 17.534 118.695 17.5378 118.619 17.5454C118.551 17.5606 118.482 17.5682 118.414 17.5682C118.224 17.5682 118.045 17.5378 117.878 17.477C117.718 17.4238 117.574 17.3022 117.445 17.1121C117.498 16.9753 117.57 16.8841 117.661 16.8385C117.76 16.7929 117.874 16.7396 118.003 16.6788C118.011 16.6712 118.037 16.656 118.083 16.6332C118.136 16.6028 118.19 16.5724 118.243 16.542C118.304 16.5116 118.357 16.485 118.402 16.4622C118.456 16.4394 118.486 16.428 118.494 16.428H118.744C118.767 16.428 118.801 16.4166 118.847 16.3938C118.9 16.3634 118.934 16.3482 118.95 16.3482C118.98 16.333 119.037 16.3178 119.121 16.3026C119.212 16.2798 119.307 16.257 119.406 16.2342C119.512 16.2113 119.611 16.1923 119.702 16.1771C119.793 16.1619 119.858 16.1505 119.896 16.1429C120.086 16.0061 120.208 15.8579 120.261 15.6983C120.314 15.5386 120.371 15.341 120.432 15.1053V13.0302C120.432 13.0074 120.436 12.9769 120.443 12.9389C120.451 12.8933 120.459 12.8477 120.466 12.8021C120.481 12.7489 120.493 12.7033 120.5 12.6653C120.508 12.6197 120.516 12.5855 120.523 12.5627V9.48409C120.538 8.9976 120.55 8.60233 120.557 8.29827C120.573 7.98661 120.584 7.73957 120.592 7.55713C120.607 7.3671 120.614 7.22267 120.614 7.12385C120.622 7.02503 120.626 6.94142 120.626 6.87301C120.626 6.72098 120.622 6.56895 120.614 6.41692C120.607 6.25729 120.603 6.16227 120.603 6.13187C120.626 5.767 120.66 5.42874 120.706 5.11708C120.759 4.79782 120.785 4.45575 120.785 4.09089C120.785 3.93126 120.782 3.78683 120.774 3.65761C120.774 3.52078 120.766 3.39536 120.751 3.28134C120.736 3.15971 120.709 3.03809 120.671 2.91647C120.641 2.79484 120.592 2.66182 120.523 2.51739C120.5 2.48699 120.455 2.45658 120.386 2.42618C120.326 2.38817 120.257 2.35396 120.181 2.32356C120.113 2.28555 120.044 2.25514 119.976 2.23234C119.915 2.20193 119.869 2.18673 119.839 2.18673C119.816 2.17913 119.771 2.17153 119.702 2.16393C119.634 2.14872 119.558 2.13732 119.474 2.12972C119.398 2.12212 119.322 2.11452 119.246 2.10692C119.178 2.09931 119.136 2.09171 119.121 2.08411C119.113 2.08411 119.071 2.07651 118.995 2.06131C118.927 2.0385 118.885 2.0195 118.87 2.0043H118.459C118.345 2.0043 118.269 2.0005 118.231 1.99289C118.193 1.98529 118.129 1.96249 118.037 1.92448C117.931 1.88647 117.836 1.83326 117.752 1.76485C117.669 1.68884 117.627 1.61662 117.627 1.54821V1.41139C117.711 1.25176 117.813 1.15294 117.935 1.11493C118.056 1.07692 118.182 1.05792 118.311 1.05792C118.372 1.05792 118.425 1.06172 118.471 1.06932C118.516 1.07692 118.562 1.08072 118.608 1.08072C118.661 1.08072 118.722 1.06552 118.79 1.03512C118.858 1.00471 118.912 0.978105 118.95 0.955301H119.064H119.189C119.227 0.970504 119.311 0.985706 119.44 1.00091C119.569 1.01611 119.706 1.03512 119.85 1.05792C120.002 1.07312 120.143 1.08833 120.272 1.10353C120.402 1.11113 120.485 1.11493 120.523 1.11493C120.607 1.13013 120.759 1.14914 120.979 1.17194C121.207 1.18714 121.443 1.20615 121.686 1.22895C121.937 1.24415 122.173 1.25936 122.393 1.27456C122.614 1.28976 122.766 1.29736 122.849 1.29736C123.214 1.20615 123.568 1.15294 123.91 1.13773C124.259 1.12253 124.605 1.11493 124.947 1.11493H125.928C126.011 1.17574 126.061 1.25556 126.076 1.35438C126.099 1.44559 126.11 1.52921 126.11 1.60522C126.11 1.72684 126.08 1.81806 126.019 1.87887C125.966 1.93968 125.894 1.98529 125.802 2.0157C125.719 2.0385 125.627 2.05371 125.529 2.06131C125.43 2.06891 125.335 2.07651 125.244 2.08411C125.19 2.08411 125.095 2.09551 124.959 2.11832C124.829 2.14112 124.738 2.16393 124.685 2.18673C124.677 2.18673 124.658 2.19433 124.628 2.20953C124.598 2.22474 124.563 2.24374 124.525 2.26655C124.487 2.28175 124.449 2.30075 124.411 2.32356C124.381 2.33876 124.362 2.35016 124.354 2.35776C124.347 2.35776 124.324 2.36156 124.286 2.36916C124.255 2.37677 124.221 2.38437 124.183 2.39197C124.145 2.39957 124.107 2.41097 124.069 2.42618C124.031 2.44138 124.008 2.45278 124.001 2.46038C123.986 2.46038 123.963 2.46418 123.932 2.47178C123.91 2.47939 123.883 2.48699 123.853 2.49459L123.739 2.51739C123.716 2.5402 123.685 2.5706 123.647 2.60861C123.609 2.63902 123.571 2.67322 123.533 2.71123C123.503 2.74924 123.472 2.78344 123.442 2.81385C123.412 2.84425 123.393 2.86326 123.385 2.87086C123.385 2.88606 123.381 2.91647 123.374 2.96208C123.366 3.00768 123.355 3.06089 123.339 3.12171C123.332 3.17492 123.324 3.22813 123.317 3.28134C123.309 3.32694 123.305 3.36115 123.305 3.38395C123.298 3.47517 123.29 3.6348 123.282 3.86284C123.282 4.09089 123.279 4.33033 123.271 4.58118C123.271 4.83202 123.271 5.06767 123.271 5.28811C123.271 5.50855 123.271 5.66438 123.271 5.7556L123.248 6.02925V7.76237C123.233 8.32488 123.218 8.76956 123.203 9.09642C123.195 9.41568 123.184 9.66273 123.168 9.83756C123.161 10.0124 123.153 10.1378 123.146 10.2138C123.138 10.2822 123.134 10.3393 123.134 10.3849C123.111 10.5749 123.096 10.7649 123.089 10.955C123.081 11.145 123.07 11.3388 123.054 11.5365C123.047 11.5441 123.039 11.5707 123.032 11.6163C123.024 11.6543 123.016 11.6999 123.009 11.7531C123.001 11.7987 122.994 11.8443 122.986 11.8899C122.978 11.9279 122.975 11.9546 122.975 11.9698C122.975 12.0078 122.978 12.0952 122.986 12.232C122.994 12.3612 123.001 12.5057 123.009 12.6653C123.024 12.8173 123.035 12.9617 123.043 13.0986C123.051 13.2354 123.054 13.319 123.054 13.3494C123.054 13.3874 123.051 13.4672 123.043 13.5889C123.035 13.7105 123.024 13.8397 123.009 13.9765C123.001 14.1134 122.994 14.2426 122.986 14.3642C122.978 14.4858 122.975 14.5618 122.975 14.5922V15.1053C122.975 15.2194 122.975 15.341 122.975 15.4702C122.982 15.5994 123.001 15.7249 123.032 15.8465C123.07 15.9605 123.123 16.0631 123.191 16.1543C123.26 16.2456 123.358 16.3102 123.488 16.3482C123.511 16.3558 123.556 16.3634 123.625 16.371C123.701 16.3786 123.78 16.3862 123.864 16.3938C123.955 16.3938 124.039 16.3976 124.115 16.4052C124.198 16.4128 124.252 16.4204 124.274 16.428C124.312 16.428 124.381 16.4432 124.48 16.4736C124.579 16.504 124.681 16.5382 124.788 16.5762C124.902 16.6066 125.008 16.6408 125.107 16.6788C125.206 16.7092 125.278 16.7358 125.323 16.7587C125.369 16.7815 125.396 16.8157 125.403 16.8613C125.411 16.8993 125.415 16.9373 125.415 16.9753C125.415 17.0817 125.388 17.1767 125.335 17.2603C125.282 17.3364 125.217 17.401 125.141 17.4542C125.065 17.515 124.978 17.5682 124.879 17.6138C124.788 17.6594 124.704 17.6974 124.628 17.7278H124.525C124.472 17.7202 124.331 17.6974 124.103 17.6594C123.883 17.629 123.644 17.591 123.385 17.5454C123.127 17.5074 122.887 17.4694 122.667 17.4314C122.446 17.401 122.309 17.3858 122.256 17.3858C122.256 17.3782 122.218 17.3706 122.142 17.363C122.074 17.363 121.99 17.3592 121.891 17.3516C121.8 17.3516 121.705 17.3516 121.606 17.3516C121.515 17.3516 121.443 17.3516 121.39 17.3516Z" fill="white"/>
</svg>
